<?xml version="1.0" encoding="UTF-8"?>
<!--
 - Copyright (c) 2024 OceanBase.
 -
 - Licensed under the Apache License, Version 2.0 (the "License");
 - you may not use this file except in compliance with the License.
 - You may obtain a copy of the License at
 -
 -     http://www.apache.org/licenses/LICENSE-2.0
 -
 - Unless required by applicable law or agreed to in writing, software
 - distributed under the License is distributed on an "AS IS" BASIS,
 - WITHOUT WARRANTIES OR CONDITIONS OF ANY KIND, either express or implied.
 - See the License for the specific language governing permissions and
 - limitations under the License.
 -->

<svg width="42px" height="42px" viewBox="0 0 42 42" version="1.1" xmlns="http://www.w3.org/2000/svg" xmlns:xlink="http://www.w3.org/1999/xlink">
    <g id="L1-系统管理&amp;个人设置" stroke="none" stroke-width="1" fill="none" fill-rule="evenodd">
        <g id="1.1.1-任务详情-标注" transform="translate(-981.000000, -385.000000)" fill="#000000">
            <g id="Zone-2-Copy-3" transform="translate(971.000000, 375.000000)">
                <g id="Group" transform="translate(10.000000, 10.000000)">
                    <g id="Oval-2" opacity="0.15" fill-opacity="0.35">
                        <circle id="Oval" cx="21" cy="21" r="21"></circle>
                    </g>
                    <path d="M22.0546875,18.109375 C22.2480469,18.109375 22.40625,18.265625 22.40625,18.4609375 L22.40625,30.2578125 C22.40625,30.453125 22.2480469,30.609375 22.0546875,30.609375 L19.9453125,30.609375 C19.7519531,30.609375 19.59375,30.453125 19.59375,30.2578125 L19.59375,18.4609375 C19.59375,18.265625 19.7519531,18.109375 19.9453125,18.109375 L22.0546875,18.109375 Z M21,11.390625 C22.1645508,11.390625 23.109375,12.3354492 23.109375,13.5 C23.109375,14.6645508 22.1645508,15.609375 21,15.609375 C19.8354492,15.609375 18.890625,14.6645508 18.890625,13.5 C18.890625,12.3354492 19.8354492,11.390625 21,11.390625 Z" id="Combined-Shape" fill-opacity="0.25"></path>
                </g>
            </g>
        </g>
    </g>
</svg>