<svg xmlns="http://www.w3.org/2000/svg" viewBox="0 0 16 16"><g id="页面-1" fill="none" fill-rule="evenodd" stroke="none" stroke-width="1"><g id="编组-2备份"><g id="编组" transform="translate(1.554 1.852)"><path id="形状结合" fill="#5C6B8A" d="M10.5 0c.3 0 .5.2.5.5v5.048H7.155l-2.31 4 1.387 2.402H.5c-.267 0-.454-.158-.493-.404L0 11.45V.5C0 .2.2 0 .5 0Zm-6 4.45h-3v1h3zm3-2h-6v1h6z"/><path id="形状结合" fill="#8592AD" d="m11.196 6.548 1.732 3-1.732 3H7.732L6 9.548l1.732-3zM9.464 8.642a1 1 0 1 0 0 2 1 1 0 0 0 0-2"/></g><path id="矩形" d="M0 0H16V16H0z"/></g></g></svg>