<?xml version="1.0" encoding="UTF-8"?>
<svg width="100%" height="100%" viewBox="0 0 72 72" version="1.1" xmlns="http://www.w3.org/2000/svg" xmlns:xlink="http://www.w3.org/1999/xlink">
    <title>编组</title>
    <defs>
        <path d="M36,68 C55.882251,68 72,51.882251 72,32 C72,12.117749 55.882251,-4 36,-4 C16.117749,-4 0,12.117749 0,32 C0,51.882251 16.117749,68 36,68 Z" id="path-1"></path>
        <mask id="mask-2" maskContentUnits="userSpaceOnUse" maskUnits="objectBoundingBox" x="0" y="0" width="72" height="72" fill="white">
            <use xlink:href="#path-1"></use>
        </mask>
    </defs>
    <g id="页面-1" stroke="none" stroke-width="1" fill="none" fill-rule="evenodd">
        <g id="1.1-集群管理-共享存储" transform="translate(-1140, -580)">
            <g id="编组备份" transform="translate(1140, 580)">
                <g id="编组" transform="translate(0, 4)">
                    <use id="椭圆形" stroke="#CDD5E4" mask="url(#mask-2)" stroke-width="4" fill="#F8FAFE" stroke-dasharray="4" xlink:href="#path-1"></use>
                    <g id="2云资源共享存储NAS申请" transform="translate(16, 12)" fill="#006AFF" fill-rule="nonzero">
                        <path d="M20.2,15.5628516 L26.9,22.4171484 L26.9,22.8171484 L21.5771484,28.1428516 L21.5771484,34.2857031 L21.2914453,34.5714453 L18.7085547,34.5714453 L18.4228516,34.2857031 L18.5028516,28.3514453 L13.0914453,22.8171484 L13.0914453,22.4171484 L19.7914453,15.5628516 L20.2,15.5628516 L20.2,15.5628516 Z M19.9485547,5.42851563 C24.9342969,5.42851563 29.1714453,9.03429687 30.1514453,13.9314453 L30.2457031,14.4742969 L30.66,14.4971484 C34.8314453,14.8514453 38.1857031,18.1257031 38.7685938,22.3171484 L38.8257031,22.8457031 L38.8542969,23.3628906 L38.8571484,23.6114453 C38.8571484,28.2885547 35.4114453,32.1771484 30.9142969,32.6971484 L30.4085547,32.7428516 L30.1571484,32.7514453 L24.4171484,32.7571484 L24.1314453,32.4714453 L24.1314453,29.8285156 L24.4171484,29.5428125 L30.0857031,29.5371094 C32.2,29.4685156 34.1142969,28.2228125 35.0714453,26.2914063 C36.0278439,24.3517465 35.8764402,22.0491352 34.6742969,20.2514062 C33.5937908,18.6226799 31.7600771,17.6541673 29.8057031,17.6799609 L29.3228906,17.7085156 L29.0228906,17.7485156 L27.5228906,17.9828125 L27.1914453,17.6971094 L27.2057031,16.0714063 C27.2057031,11.9685156 23.9542969,8.6428125 19.9485547,8.6428125 C16.1828516,8.6428125 13.0657422,11.5856641 12.7228516,15.3514063 L12.6942969,15.8256641 L12.6914453,16.0428516 L12.72,17.6599609 L12.3942969,17.9485156 L10.9257031,17.7399609 C7.84570313,17.6256641 5.21710938,20.0056641 4.94855469,23.1514063 C4.69144531,26.1514063 6.66855469,28.8399609 9.46574219,29.4599609 L9.89144531,29.5371094 L15.5828516,29.5428125 L15.8685547,29.8285156 L15.8685547,32.4714063 L15.5828516,32.7571484 L10.0914453,32.7571484 C5.14855469,32.7571484 1.14285156,28.6571094 1.14285156,23.6114063 C1.14285156,18.9228125 4.60574219,15.0285156 9.1,14.5199609 L9.65144531,14.4742578 L9.74570313,13.9399609 C10.6314453,9.49710938 14.2028516,6.10566406 18.5942969,5.51996094 L19.1485938,5.45996094 L19.6885547,5.43140625 L19.9485547,5.42851563 L19.9485547,5.42851563 Z M19.9942578,19.9057031 L17.3457031,22.6142969 L19.9942969,25.32 L22.6428516,22.6142969 L19.9942969,19.9057031 L19.9942578,19.9057031 Z" id="形状"></path>
                    </g>
                </g>
            </g>
        </g>
    </g>
</svg>