<svg width="120" height="120" viewBox="0 0 120 120" xmlns="http://www.w3.org/2000/svg" xmlns:xlink="http://www.w3.org/1999/xlink"><defs><ellipse id="a" cx="46.681" cy="46.526" rx="46.681" ry="46.526"/><ellipse id="c" cx="26.046" cy="25.96" rx="26.046" ry="25.96"/></defs><g fill="none" fill-rule="evenodd"><path d="M0 0h120v120H0z"/><g transform="translate(19.638 12.892)"><mask id="b" fill="#fff"><use xlink:href="#a"/></mask><ellipse fill="#0181FD" fill-rule="nonzero" mask="url(#b)" cx="46.681" cy="46.526" rx="46.681" ry="46.526"/><g fill-rule="nonzero" mask="url(#b)"><g transform="translate(-6.148 35.876)"><rect fill="#FFF" width="62.611" height="77.752" rx="4.65"/><g transform="translate(6.983 13.675)" fill="#E6E6E6"><rect y="5.785" width="45.876" height="2.506" rx=".626"/><rect width="19.152" height="2.506" rx=".626"/><rect x="21.489" width="24.357" height="2.506" rx=".626"/><rect y="11.551" width="31.094" height="2.506" rx=".626"/><rect x="32.892" y="11.551" width="13.17" height="2.506" rx=".626"/></g><g transform="translate(6.983 31.236)" fill="#E6E6E6"><rect y="5.785" width="45.876" height="2.506" rx=".626"/><rect width="19.152" height="2.506" rx=".626"/><rect x="21.489" width="24.357" height="2.506" rx=".626"/><rect y="11.551" width="31.094" height="2.506" rx=".626"/><rect x="32.892" y="11.551" width="13.17" height="2.506" rx=".626"/></g><g transform="translate(6.983 48.806)" fill="#E6E6E6"><rect y="5.785" width="45.876" height="2.506" rx=".626"/><rect width="19.152" height="2.506" rx=".626"/><rect x="21.489" width="24.357" height="2.506" rx=".626"/><rect y="11.551" width="31.094" height="2.506" rx=".626"/><rect x="32.892" y="11.551" width="13.17" height="2.506" rx=".626"/></g><path d="M4.665 0h53.28c2.574 0 4.666 2.085 4.666 4.65v3.524H0V4.65C0 2.085 2.092 0 4.665 0z" fill="#132039"/><ellipse fill="#FFF" cx="4.4" cy="4.092" rx="1.247" ry="1.243"/><ellipse fill="#FFF" cx="8.23" cy="4.092" rx="1.247" ry="1.243"/><ellipse fill="#FFF" cx="12.061" cy="4.092" rx="1.247" ry="1.243"/><ellipse fill="#FFF" cx="15.842" cy="4.092" rx="1.247" ry="1.243"/></g><path fill="#132039" d="M31.32 58.957l22.344 41.485 3.712-1.518-.913-36.962z"/></g></g><path fill="#E6E6E6" fill-rule="nonzero" d="M84.462 83.075l5.588-2.411L95.09 92.27l-5.588 2.41z"/><path fill="#CCC" fill-rule="nonzero" d="M84.464 83.073l5.588-2.411 2.876 6.62-5.588 2.412z"/><path d="M104.76 118.658l-2.514 1.087a3.115 3.115 0 0 1-4.106-1.654l-9.556-22.876a1.036 1.036 0 0 1 .54-1.341l5.687-2.457c.52-.226 1.12 0 1.355.518l10.195 22.602a3.087 3.087 0 0 1-1.601 4.112v.01z" fill="#FFA005" fill-rule="nonzero"/><g fill-rule="nonzero"><path d="M77.024 86.023c-11.127 0-21.165-6.578-25.584-16.748-2.956-6.813-3.074-14.36-.344-21.261 2.74-6.902 8.014-12.324 14.84-15.27a27.834 27.834 0 0 1 11.059-2.291c11.128 0 21.175 6.578 25.585 16.748 6.108 14.057-.403 30.443-14.507 36.531a27.834 27.834 0 0 1-11.058 2.291h.01z" fill="#07C846"/><path d="M76.995 32.264c10.067 0 19.662 5.853 23.915 15.652 5.716 13.156-.354 28.446-13.554 34.143a25.967 25.967 0 0 1-10.332 2.143c-10.066 0-19.662-5.853-23.915-15.652-5.716-13.156.354-28.446 13.554-34.143a25.967 25.967 0 0 1 10.332-2.143m0-3.632c-4.066 0-8.034.822-11.786 2.447-7.277 3.142-12.895 8.918-15.812 16.269-2.917 7.351-2.79 15.397.363 22.65 4.705 10.837 15.41 17.846 27.264 17.846 4.066 0 8.034-.823 11.786-2.447 7.278-3.143 12.895-8.918 15.812-16.27 2.917-7.35 2.79-15.397-.363-22.65-4.704-10.836-15.41-17.845-27.264-17.845z" fill="#132039"/></g><g transform="translate(50.968 32.273)"><mask id="d" fill="#fff"><use xlink:href="#c"/></mask><g mask="url(#d)" fill-rule="nonzero"><g transform="translate(-33.913 12.08)"><rect fill="#6ADE90" width="62.611" height="77.752" rx="4.65"/><path d="M4.665 0h53.28c2.574 0 4.666 2.085 4.666 4.65v3.524H0V4.65C0 2.085 2.092 0 4.665 0z" fill="#39D36B"/></g></g></g><g fill-rule="nonzero"><path fill="#FFF" d="M77.015 50.304H62.332v15.858l14.683 6.999z"/><path fill="#E6E6E6" d="M77.015 50.304h14.683v15.858L77.015 73.16z"/><path fill="#0181FD" d="M77.015 57.303l-14.683-6.999 14.683-6.999 14.683 7z"/></g><g><ellipse cx="21.921" cy="21.848" rx="21.921" ry="21.848" fill="#FFA005" fill-rule="nonzero" transform="translate(8)"/><path d="M30.216 12.02c-2.004 0-3.575.568-4.744 1.704-1.188 1.135-1.758 2.701-1.758 4.698h3.084c0-1.135.216-2.026.678-2.643.51-.753 1.355-1.106 2.543-1.106.924 0 1.65.245 2.171.754.491.509.756 1.214.756 2.105 0 .675-.245 1.321-.727 1.918l-.324.382c-1.758 1.566-2.818 2.702-3.172 3.426-.383.724-.54 1.615-.54 2.643v.382h3.113V25.9c0-.646.138-1.214.403-1.752.245-.49.599-.95 1.08-1.351 1.297-1.136 2.082-1.86 2.328-2.134.648-.861 1.002-1.968 1.002-3.318 0-1.645-.54-2.947-1.62-3.887-1.081-.969-2.515-1.429-4.283-1.429l.01-.01zm-.491 15.574c-.6 0-1.08.186-1.493.568-.403.382-.6.861-.6 1.459 0 .597.187 1.076.6 1.458.403.382.894.597 1.493.597.599 0 1.08-.186 1.493-.568.402-.381.618-.89.618-1.487a1.98 1.98 0 0 0-.599-1.459c-.402-.382-.923-.568-1.512-.568z" fill="#FFF"/></g></g></svg>