<svg xmlns="http://www.w3.org/2000/svg" viewBox="0 0 1024 1024"><g fill="none" fill-rule="evenodd" stroke="none" stroke-width="1"><path d="M0 0H1024V1024H0z"/><path fill="#006AFF" d="M834 720H190c-17.673 0-32-14.327-32-32V208c0-17.673 14.327-32 32-32h644c17.673 0 32 14.327 32 32v480c0 17.673-14.327 32-32 32"/><path fill="#0AC185" d="M826 848H201a8 8 0 0 1-8-8v-48a8 8 0 0 1 8-8h625a8 8 0 0 1 8 8v48a8 8 0 0 1-8 8"/><path fill="#FFF" d="M583.627 551.627c-8.19 0-16.38-3.124-22.627-9.373L440.373 421.628l-114.968 114.97a8 8 0 0 1-11.313 0l-33.941-33.942a7.998 7.998 0 0 1 0-11.314l137.596-137.595c12.495-12.498 32.757-12.498 45.255 0l120.624 120.625 114.97-114.97a8 8 0 0 1 11.313 0l33.942 33.942a8 8 0 0 1 0 11.314L606.254 542.254c-6.249 6.249-14.438 9.372-22.628 9.372"/></g></svg>