<?xml version="1.0" encoding="UTF-8"?>
<svg width="16px" height="16px" viewBox="0 0 16 16" version="1.1" xmlns="http://www.w3.org/2000/svg" xmlns:xlink="http://www.w3.org/1999/xlink">
    <title>未选择</title>
    <g id="页面-1" stroke="none" stroke-width="1" fill="none" fill-rule="evenodd">
        <g id="未选择">
            <rect id="矩形-4" x="0" y="0" width="16" height="16"></rect>
            <g id="编组" transform="translate(1.6667, 1.67)" fill-rule="nonzero">
                <path d="M6.33332812,1.00000054 L6.33332812,5.66843804 C6.33332812,6.03556304 6.63110938,6.33332866 6.99821875,6.33332866 L11.6666563,6.33332866 C11.8506563,6.33332866 12,6.48267241 12,6.66667241 C12,9.98038091 9.3137085,12.6666724 6,12.6666724 C2.6862915,12.6666724 0,9.98038091 0,6.66667241 C0,3.35296391 2.6862915,0.66667241 6,0.66667241 C6.184,0.66667241 6.33332812,0.816000535 6.33332812,1.00000054 Z" id="路径" fill="#5C6B8A"></path>
                <path d="M7.61421875,0 C8.95420849,0 10.2393157,0.532309386 11.1868316,1.47982522 C12.1343474,2.42734105 12.6666562,3.7124483 12.6666562,5.05243804 C12.6666562,5.12708671 12.6369428,5.19866527 12.5840762,5.2513677 C12.5312096,5.30407014 12.4595389,5.3335612 12.3848906,5.33333003 L8,5.33333003 C7.63181339,5.33333003 7.33332759,5.03485902 7.33332759,4.66667241 L7.33332759,0.28089116 C7.33318257,0.206349809 7.36272958,0.134819579 7.41543837,0.0821107841 C7.46814717,0.0294019887 7.5396774,-0.000145017225 7.61421875,0 Z" id="路径" fill="#8592AD"></path>
            </g>
        </g>
    </g>
</svg>