<?xml version="1.0" encoding="UTF-8"?>
<svg width="129px" height="24px" viewBox="0 0 239 24" version="1.1" xmlns="http://www.w3.org/2000/svg" xmlns:xlink="http://www.w3.org/1999/xlink">
    <title>ob_dashboard_simple_logo_en</title>
    <g id="页面-1" stroke="none" stroke-width="1" fill="none" fill-rule="evenodd">
        <g id="ob_dashboard_simple_logo_en" transform="translate(0, 0.02)" fill-rule="nonzero">
            <g id="编组" transform="translate(43.67, 2.76)" fill="#181818">
                <g transform="translate(0, 0)" id="形状">
                    <path d="M9.36,0 C4.19,0 0,4.12 0,9.2 C0,14.28 4.19,18.4 9.36,18.4 C14.53,18.4 18.72,14.28 18.72,9.2 C18.72,4.12 14.53,0 9.36,0 L9.36,0 Z M9.36,14.64 C6.27,14.64 4.31,12.13 4.31,9.2 C4.31,6.27 6.26,3.76 9.36,3.76 C12.46,3.76 14.41,6.27 14.41,9.2 C14.41,12.13 12.46,14.64 9.36,14.64 Z"></path>
                    <path d="M33.71,8.61 C35.03,8.03 35.9,6.81 35.9,5.14 C35.9,3.11 34.7,0.53 30.23,0.43 C25.7,0.33 20.66,0.37 20.66,0.37 L20.66,17.95 C20.66,17.95 27.07,18.01 30.59,17.95 C34.86,17.87 36.79,15.48 36.79,12.76 C36.79,10.99 35.92,9.4 33.71,8.61 L33.71,8.61 L33.71,8.61 Z M24.51,3.55 L29.58,3.55 C31.28,3.55 32.08,4.14 32.08,5.45 C32.08,6.76 31.03,7.23 29.7,7.23 L24.52,7.23 C24.52,7.23 24.52,3.56 24.52,3.56 L24.51,3.55 Z M30.2,14.67 C28.79,14.73 24.52,14.67 24.52,14.67 L24.52,10.42 C24.52,10.42 28.11,10.41 29.94,10.41 C31.77,10.41 32.94,11.01 32.94,12.65 C32.94,13.96 31.98,14.59 30.21,14.67 L30.21,14.67 L30.2,14.67 Z"></path>
                </g>
                <g transform="translate(62.64, 0.39)">
                    <path d="M46.09,17.62 L49.69,17.62 L49.69,9.53 C49.69,8.08 51.13,7.12 52.72,7.17 C54.04,7.21 55.58,7.74 55.58,9.69 L55.58,17.63 L59.21,17.63 L59.21,9.19 C59.21,7.08 58.1,3.89 53.48,3.89 C51.5,3.89 50.13,4.81 49.69,5.33 L49.69,0.02 L46.06,0.02 L46.06,17.64 L46.09,17.64 L46.09,17.64 L46.09,17.62 Z" id="路径"></path>
                    <path d="M60.99,3.55271368e-15 L60.99,17.55 L64.62,17.55 L64.62,15.65 C65.7,16.89 67,17.62 69.06,17.62 C72.85,17.62 75.55,14.86 75.55,10.74 C75.55,6.62 72.97,3.86 69.05,3.86 C67,3.86 65.7,4.49 64.63,5.53 L64.63,3.55271368e-15 L61,3.55271368e-15 L60.99,3.55271368e-15 Z M64.84,10.74 C64.84,8.6 66.18,7.06 68.42,7.06 C70.66,7.06 71.92,8.76 71.92,10.74 C71.92,12.72 70.66,14.42 68.42,14.42 C66.18,14.42 64.84,12.88 64.84,10.74 Z" id="形状"></path>
                    <path d="M128.06,1.0658141e-14 L128.06,5.53 C126.98,4.49 125.68,3.86 123.64,3.86 C119.72,3.86 117.14,6.64 117.14,10.74 C117.14,14.84 119.84,17.62 123.63,17.62 C125.69,17.62 126.99,16.89 128.07,15.65 L128.07,17.55 L131.7,17.55 L131.7,1.0658141e-14 L128.07,1.0658141e-14 L128.06,1.0658141e-14 Z M124.26,14.42 C122.02,14.42 120.76,12.72 120.76,10.74 C120.76,8.76 122.02,7.06 124.26,7.06 C126.5,7.06 127.84,8.6 127.84,10.74 C127.84,12.88 126.5,14.42 124.26,14.42 Z" id="形状"></path>
                    <g transform="translate(-0, 0)">
                        <rect id="矩形" x="0" y="0" width="3.86" height="17.62"></rect>
                        <path d="M3.86,0 L3.86,3.19 L6.88,3.19 C9.69,3.19 11.97,5.47 11.97,8.28 L11.97,9.34 C11.97,12.15 9.69,14.43 6.88,14.43 L3.86,14.43 L3.86,17.62 L7.75,17.62 C12.21,17.62 15.83,14 15.83,9.54 L15.83,8.08 C15.83,3.62 12.21,0 7.75,0 L3.86,0 C3.86,0 3.86,0 3.86,0 L3.86,0 Z" id="路径"></path>
                    </g>
                    <path d="M35.81,12.66 C36.06,13.78 37.11,14.35 38.48,14.47 C39.78,14.58 40.65,14.12 40.64,13.35 C40.64,12.52 39.78,12.3 38.75,12.12 C37.18,11.85 35.95,11.66 35.28,11.44 C34.3,11.07 33.62,10.61 33.23,9.99 C32.9,9.44 32.67,8.91 32.67,8.21 C32.67,5.75 34.86,3.78 38.05,3.66 C41.28,3.54 43.45,5.7 43.88,7.98 L40.39,8.36 C40.17,7.41 39.29,6.73 38.18,6.73 C36.68,6.73 36.27,7.54 36.29,7.92 C36.32,8.65 37.04,8.87 38.56,9.08 C40.6,9.36 41.43,9.7 42.15,10.07 C43.49,10.73 44.27,11.65 44.27,13.13 C44.27,15.45 42.67,17.63 38.36,17.63 C36.08,17.63 34.26,16.72 33.27,15.37 C32.86,14.8 32.41,13.95 32.27,13.13 L35.81,12.67 L35.81,12.67 L35.81,12.66 Z" id="路径"></path>
                    <g transform="translate(106.66, 3.6308)">
                        <rect id="矩形" x="0" y="0.229156892" width="3.63" height="13.76"></rect>
                        <path d="M3.63,1.90915689 C5.49,-0.450843108 8.76,-0.200843108 10.47,0.439156892 L9.41,3.90915689 C8.75,3.73915689 7.87,3.65915689 7.12,3.73915689 C5.52,3.90915689 3.7,5.02915689 3.62,7.25915689" id="路径"></path>
                    </g>
                    <path d="M84.11,3.86 C80.25,3.86 77.11,6.94 77.11,10.74 C77.11,14.54 80.24,17.62 84.11,17.62 C87.98,17.62 91.11,14.54 91.11,10.74 C91.11,6.94 87.98,3.86 84.11,3.86 L84.11,3.86 Z M84.11,14.2 C81.97,14.2 80.62,12.6 80.62,10.74 C80.62,8.88 81.97,7.28 84.11,7.28 C86.25,7.28 87.6,8.88 87.6,10.74 C87.6,12.6 86.25,14.2 84.11,14.2 Z" id="形状"></path>
                    <path d="M101.47,8.64 C101.35,7.5 100.25,6.97 98.88,6.94 C97.64,6.91 96.62,7.55 96.2,8.58 L92.85,8.04 C93.1,6.51 94.96,3.86 98.68,3.86 C102.87,3.86 104.99,6.15 104.99,8.78 L104.99,17.51 L101.47,17.51 L101.47,16.37 C100.31,17.26 98.92,17.69 97.15,17.62 C95.57,17.56 94.75,17.25 93.92,16.48 C93.17,15.8 92.78,14.8 92.78,13.66 C92.78,12.35 93.36,11.41 94.28,10.61 C95.24,9.77 97.58,8.69 101.48,8.91 L101.48,8.66 L101.48,8.66 L101.47,8.64 Z M101.47,11.55 C100,11.41 98.49,11.7 97.59,12.14 C96.88,12.49 96.39,12.96 96.39,13.56 C96.39,14.31 97.01,14.74 98.09,14.74 C98.94,14.74 100.17,14.43 100.73,13.95 C101.21,13.53 101.48,12.98 101.48,12.35 L101.48,11.54 L101.48,11.54 L101.47,11.55 Z" id="形状"></path>
                    <path d="M26.58,8.64 C26.46,7.5 25.36,6.97 23.99,6.94 C22.75,6.91 21.73,7.55 21.31,8.58 L17.96,8.04 C18.21,6.51 20.07,3.86 23.79,3.86 C27.98,3.86 30.1,6.15 30.1,8.78 L30.1,17.51 L26.58,17.51 L26.58,16.37 C25.42,17.26 24.03,17.69 22.26,17.62 C20.68,17.56 19.86,17.25 19.03,16.48 C18.28,15.8 17.89,14.8 17.89,13.66 C17.89,12.35 18.47,11.41 19.39,10.61 C20.35,9.77 22.69,8.69 26.59,8.91 L26.59,8.66 L26.59,8.66 L26.58,8.64 Z M26.58,11.55 C25.11,11.41 23.6,11.7 22.7,12.14 C21.99,12.49 21.5,12.96 21.5,13.56 C21.5,14.31 22.12,14.74 23.2,14.74 C24.05,14.74 25.28,14.43 25.84,13.95 C26.32,13.53 26.59,12.98 26.59,12.35 L26.59,11.54 L26.59,11.54 L26.58,11.55 Z" id="形状"></path>
                </g>
                <rect id="矩形" x="42.53" y="7.89" width="13.11" height="2.61"></rect>
            </g>
            <g id="编组" transform="translate(0, -0)">
                <polygon id="路径" fill="#0181FD" points="29.18 16.01 23.57 16.01 23.57 5.61 7.87 5.61 7.87 16.01 2.27 16.01 2.27 7.10542736e-15 29.18 7.10542736e-15"></polygon>
                <rect id="矩形" fill="#181818" x="12.98" y="9.16" width="5.61" height="5.61"></rect>
                <rect id="矩形" fill="#0181FD" x="0" y="19.02" width="31.45" height="4.93"></rect>
            </g>
        </g>
    </g>
</svg>