<?xml version="1.0" encoding="UTF-8"?>
<svg id="_图层_1" xmlns="http://www.w3.org/2000/svg" xmlns:xlink="http://www.w3.org/1999/xlink" version="1.1" viewBox="0 0 175 175">
  <!-- Generator: Adobe Illustrator 29.4.0, SVG Export Plug-In . SVG Version: 2.1.0 Build 152)  -->
  <defs>
    <style>
      .st0 {
        mask: url(#mask);
      }

      .st1 {
        fill: #fff;
        fill-rule: evenodd;
      }

      .st2 {
        fill: #006dff;
      }

      .st3 {
        fill: #181818;
      }
    </style>
    <mask id="mask" x="0" y="0" width="175" height="175" maskUnits="userSpaceOnUse">
      <g id="mask-2">
        <polygon id="path-1" class="st1" points="0 0 175 0 175 175 0 175 0 0"/>
      </g>
    </mask>
  </defs>
  <g id="_产品-icon-更新-中文" data-name="产品-icon-更新-中文">
    <g id="_编组" data-name="编组">
      <g class="st0">
        <path id="Fill-1" class="st1" d="M163,175H12C5.37,175,0,169.63,0,162.99V12C0,5.37,5.37,0,12,0h150.99c6.63,0,12,5.38,12,12v150.99c0,6.63-5.38,12-12,12"/>
      </g>
    </g>
  </g>
  <g>
    <polygon class="st2" points="142.38 103.94 119.51 103.94 119.51 61.51 55.48 61.51 55.48 103.94 32.61 103.94 32.61 38.64 142.38 38.64 142.38 103.94"/>
    <rect class="st3" x="76.28" y="75.98" width="22.87" height="22.87"/>
    <rect class="st2" x="23.37" y="116.23" width="128.26" height="20.13"/>
  </g>
</svg>