<?xml version="1.0" encoding="UTF-8"?>
<!--
 - Copyright (c) 2024 OceanBase.
 -
 - Licensed under the Apache License, Version 2.0 (the "License");
 - you may not use this file except in compliance with the License.
 - You may obtain a copy of the License at
 -
 -     http://www.apache.org/licenses/LICENSE-2.0
 -
 - Unless required by applicable law or agreed to in writing, software
 - distributed under the License is distributed on an "AS IS" BASIS,
 - WITHOUT WARRANTIES OR CONDITIONS OF ANY KIND, either express or implied.
 - See the License for the specific language governing permissions and
 - limitations under the License.
 -->

<svg width="8px" height="8px" viewBox="0 0 8 8" version="1.1" xmlns="http://www.w3.org/2000/svg" xmlns:xlink="http://www.w3.org/1999/xlink">
    <g id="L2-拓扑图" stroke="none" stroke-width="1" fill="none" fill-rule="evenodd">
        <g id="1.1.1-集群拓扑图-集群-标注" transform="translate(-168.000000, -664.000000)" fill="#FFFFFF">
            <g id="Group-13" transform="translate(64.000000, 558.000000)">
                <g id="Group" transform="translate(99.000000, 78.000000)">
                    <g id="Icon/02-Line/1-example" transform="translate(0.000000, 23.000000)">
                        <path d="M13,5.1902497 C13,5.08561237 12.916955,5 12.8154556,5 L11.2929642,5.00713436 L9,7.82520809 L6.70934256,5.00951249 L5.18454441,5.00237812 C5.08304498,5.00237812 5,5.08561237 5,5.19262782 C5,5.23781213 5.01614764,5.28061831 5.0438293,5.31629013 L8.0449827,9.00237812 L5.0438293,12.686088 C5.01614764,12.7217598 5,12.764566 5,12.8097503 C5,12.9143876 5.08304498,13 5.18454441,13 L6.70934256,12.9928656 L9,10.1747919 L11.2906574,12.9904875 L12.8131488,12.9976219 C12.9146482,12.9976219 12.9976932,12.9143876 12.9976932,12.8073722 C12.9976932,12.7621879 12.9815456,12.7193817 12.9538639,12.6837099 L9.95732411,9 L12.9584775,5.31391201 C12.9861592,5.28061831 13,5.23543401 13,5.1902497 Z" id="Shape"></path>
                    </g>
                </g>
            </g>
        </g>
    </g>
</svg>