<?xml version="1.0" encoding="UTF-8"?>
<svg id="_图层_1" data-name="图层_1" xmlns="http://www.w3.org/2000/svg" xmlns:xlink="http://www.w3.org/1999/xlink" version="1.1" viewBox="0 0 1720 1800">
  <!-- Generator: Adobe Illustrator 29.5.1, SVG Export Plug-In . SVG Version: 2.1.0 Build 141)  -->
  <defs>
    <style>
      .st0, .st1, .st2, .st3, .st4, .st5, .st6, .st7, .st8, .st9, .st10, .st11, .st12, .st13, .st14, .st15, .st16, .st17, .st18, .st19, .st20, .st21, .st22, .st23, .st24, .st25, .st26, .st27 {
        fill: none;
      }

      .st28 {
        fill: #d0d3dd;
      }

      .st1 {
        stroke: url(#_未命名的渐变_2333);
      }

      .st1, .st2, .st3, .st4, .st5, .st7, .st9, .st10, .st22, .st23, .st25, .st26 {
        stroke-linecap: round;
      }

      .st1, .st2, .st3, .st4, .st6, .st7, .st8, .st9, .st10, .st11, .st29, .st12, .st13, .st14, .st15, .st18, .st30, .st19, .st31, .st20, .st21, .st22, .st23, .st24, .st32, .st25, .st26, .st27 {
        stroke-miterlimit: 10;
      }

      .st2 {
        stroke: url(#_未命名的渐变_2334);
      }

      .st3 {
        stroke: url(#_未命名的渐变_2331);
      }

      .st4 {
        stroke: url(#_未命名的渐变_2335);
      }

      .st33 {
        fill: url(#_未命名的渐变_5);
      }

      .st5 {
        stroke: #0181fd;
        stroke-linejoin: round;
        stroke-width: 1.05px;
      }

      .st5, .st34, .st35 {
        mix-blend-mode: multiply;
      }

      .st5, .st36 {
        opacity: .5;
      }

      .st37 {
        fill: url(#_未命名的渐变_2512);
      }

      .st38 {
        fill: url(#_未命名的渐变_2511);
      }

      .st39 {
        fill: url(#_未命名的渐变_4332);
      }

      .st40 {
        fill: url(#_未命名的渐变_4331);
      }

      .st41 {
        fill: url(#_未命名的渐变_1342);
      }

      .st42 {
        fill: url(#_未命名的渐变_1341);
      }

      .st43 {
        fill: #8fffa7;
      }

      .st44 {
        letter-spacing: 0em;
      }

      .st44, .st45 {
        font-family: ArialHebrew-Light, 'Arial Hebrew';
      }

      .st6 {
        stroke: #001767;
      }

      .st6, .st21 {
        stroke-width: 2px;
      }

      .st34 {
        fill: #142e68;
      }

      .st7 {
        stroke: url(#_未命名的渐变_233);
      }

      .st46 {
        fill: #cecece;
      }

      .st47 {
        fill: url(#_未命名的渐变_433);
      }

      .st48 {
        fill: url(#_未命名的渐变_424);
      }

      .st49 {
        fill: url(#_未命名的渐变_411);
      }

      .st50 {
        fill: url(#_未命名的渐变_301);
      }

      .st51 {
        fill: url(#_未命名的渐变_302);
      }

      .st52 {
        fill: url(#_未命名的渐变_370);
      }

      .st53 {
        fill: url(#_未命名的渐变_366);
      }

      .st54 {
        fill: url(#_未命名的渐变_380);
      }

      .st55 {
        fill: url(#_未命名的渐变_381);
      }

      .st56 {
        fill: url(#_未命名的渐变_382);
      }

      .st57 {
        fill: url(#_未命名的渐变_251);
      }

      .st58 {
        fill: url(#_未命名的渐变_242);
      }

      .st59 {
        fill: url(#_未命名的渐变_141);
      }

      .st60 {
        fill: url(#_未命名的渐变_119);
      }

      .st61 {
        fill: url(#_未命名的渐变_111);
      }

      .st62 {
        fill: url(#_未命名的渐变_134);
      }

      .st63, .st32 {
        fill: #0181fd;
      }

      .st64 {
        fill: #b0e3ff;
      }

      .st8 {
        stroke: url(#_未命名的渐变_351);
      }

      .st8, .st29, .st12, .st14, .st19, .st23, .st32, .st27 {
        stroke-width: .5px;
      }

      .st9 {
        stroke: #142e68;
      }

      .st9, .st10, .st22 {
        stroke-width: 4px;
      }

      .st65 {
        fill: #a4daff;
      }

      .st66, .st67 {
        isolation: isolate;
      }

      .st10 {
        stroke: #07c846;
      }

      .st68 {
        fill: #008cff;
      }

      .st11 {
        stroke: url(#_未命名的渐变_1001);
      }

      .st69 {
        clip-path: url(#clippath-3);
      }

      .st70 {
        clip-path: url(#clippath-4);
      }

      .st71 {
        clip-path: url(#clippath-2);
      }

      .st72 {
        clip-path: url(#clippath-5);
      }

      .st29, .st12 {
        stroke: #48a4fe;
      }

      .st29, .st73 {
        fill: #08f;
      }

      .st74 {
        fill: #009244;
      }

      .st13 {
        stroke: url(#_未命名的渐变_363);
      }

      .st13, .st15 {
        opacity: .25;
      }

      .st13, .st15, .st20 {
        stroke-width: 1.2px;
      }

      .st14, .st19, .st23, .st32, .st27 {
        stroke: #fff;
      }

      .st75, .st31 {
        fill: #fff;
      }

      .st76 {
        fill: #09ad40;
      }

      .st15 {
        stroke: url(#_未命名的渐变_3631);
      }

      .st77 {
        fill: #52e27a;
      }

      .st16 {
        stroke: url(#_未命名的渐变_103);
      }

      .st16, .st17 {
        stroke-linejoin: bevel;
      }

      .st17 {
        stroke: url(#_未命名的渐变_101);
      }

      .st78 {
        fill: #ffb206;
      }

      .st79 {
        fill: #001767;
      }

      .st80 {
        opacity: .28;
      }

      .st81 {
        fill: #249cff;
      }

      .st18 {
        stroke: url(#_未命名的渐变_100);
      }

      .st30 {
        fill: #575859;
        stroke: #575859;
      }

      .st19 {
        opacity: .3;
      }

      .st31 {
        stroke: #231815;
      }

      .st20 {
        opacity: .46;
        stroke: url(#_未命名的渐变_142);
      }

      .st82 {
        fill: #0acc41;
      }

      .st21 {
        stroke: #000;
      }

      .st83 {
        fill: url(#_未命名的渐变_90);
      }

      .st84 {
        fill: url(#_未命名的渐变_98);
      }

      .st85 {
        fill: url(#_未命名的渐变_10);
      }

      .st86 {
        fill: url(#_未命名的渐变_14);
      }

      .st87 {
        fill: url(#_未命名的渐变_30);
      }

      .st22 {
        stroke: #ffa005;
      }

      .st88 {
        fill: #09c846;
      }

      .st89 {
        fill: #b4b4b5;
      }

      .st90 {
        fill: #006d2f;
      }

      .st91 {
        fill: #006aff;
      }

      .st92 {
        fill: #5abcff;
      }

      .st93 {
        fill: #ffa005;
      }

      .st24 {
        stroke: url(#_未命名的渐变_9);
      }

      .st94 {
        clip-path: url(#clippath);
      }

      .st25 {
        stroke: url(#_未命名的渐变_2336);
      }

      .st25, .st26 {
        opacity: .66;
      }

      .st26 {
        stroke: url(#_未命名的渐变_2332);
      }

      .st95 {
        font-family: AdobeSongStd-Light-GBpc-EUC-H, 'Adobe Song Std';
      }

      .st27 {
        opacity: .33;
      }

      .st67 {
        font-size: 94.92px;
        font-weight: 300;
      }
    </style>
    <clipPath id="clippath">
      <rect class="st0" x="-40" width="1800" height="1800"/>
    </clipPath>
    <linearGradient id="_未命名的渐变_134" data-name="未命名的渐变 134" x1="2661.91" y1="16.27" x2="473.67" y2="16.27" gradientUnits="userSpaceOnUse">
      <stop offset="0" stop-color="#1278ff"/>
      <stop offset=".02" stop-color="#006aff"/>
      <stop offset=".48" stop-color="#006aff"/>
      <stop offset=".5" stop-color="#1278ff"/>
      <stop offset="1" stop-color="#1278ff"/>
    </linearGradient>
    <linearGradient id="_未命名的渐变_363" data-name="未命名的渐变 363" x1="474.25" y1="13.21" x2="1910.8" y2="13.21" gradientUnits="userSpaceOnUse">
      <stop offset="0" stop-color="#fff" stop-opacity="0"/>
      <stop offset="0" stop-color="#fff"/>
      <stop offset=".96" stop-color="#fff"/>
      <stop offset="1" stop-color="#fff" stop-opacity="0"/>
    </linearGradient>
    <linearGradient id="_未命名的渐变_1341" data-name="未命名的渐变 134" x1="1686.57" y1="-338.67" x2="-501.67" y2="-338.67" xlink:href="#_未命名的渐变_134"/>
    <linearGradient id="_未命名的渐变_3631" data-name="未命名的渐变 363" x1="-501.09" y1="-341.72" x2="935.47" y2="-341.72" xlink:href="#_未命名的渐变_363"/>
    <linearGradient id="_未命名的渐变_242" data-name="未命名的渐变 242" x1="295.36" y1="1008.27" x2="595.91" y2="1008.27" gradientUnits="userSpaceOnUse">
      <stop offset="0" stop-color="#5093ff"/>
      <stop offset=".35" stop-color="#438cff"/>
      <stop offset="1" stop-color="#227cff"/>
      <stop offset="1" stop-color="#227cff"/>
    </linearGradient>
    <linearGradient id="_未命名的渐变_380" data-name="未命名的渐变 380" x1="440.74" y1="1094.81" x2="466.82" y2="915.42" gradientUnits="userSpaceOnUse">
      <stop offset="0" stop-color="#0074ff"/>
      <stop offset=".21" stop-color="#005de8"/>
      <stop offset=".52" stop-color="#0041cc"/>
      <stop offset=".8" stop-color="#0030bb"/>
      <stop offset="1" stop-color="#002bb5"/>
    </linearGradient>
    <linearGradient id="_未命名的渐变_381" data-name="未命名的渐变 381" x1="920.23" y1="1290.97" x2="1032.71" y2="956.11" gradientUnits="userSpaceOnUse">
      <stop offset=".11" stop-color="#1278ff"/>
      <stop offset=".2" stop-color="#0a62e8"/>
      <stop offset=".33" stop-color="#0043c9"/>
      <stop offset=".38" stop-color="#003db9"/>
      <stop offset=".54" stop-color="#002983"/>
      <stop offset=".68" stop-color="#001b5b"/>
      <stop offset=".79" stop-color="#001242"/>
      <stop offset=".86" stop-color="#000f3a"/>
    </linearGradient>
    <linearGradient id="_未命名的渐变_14" data-name="未命名的渐变 14" x1="100.73" y1="503.01" x2="209.94" y2="503.01" gradientUnits="userSpaceOnUse">
      <stop offset="0" stop-color="#006aff"/>
      <stop offset=".54" stop-color="#08f"/>
    </linearGradient>
    <clipPath id="clippath-2">
      <path class="st0" d="M153.82,486.01l49.47-17.76c10.38-3.73,8.4-11.01-4.43-16.27h0c-12.82-5.26-31.63-6.5-42.01-2.77l-49.47,17.76c-10.38,3.73-8.4,11.01,4.43,16.27h0c12.82,5.26,31.63,6.5,42.01,2.77Z"/>
    </clipPath>
    <linearGradient id="_未命名的渐变_141" data-name="未命名的渐变 14" x1="134.26" y1="462.35" x2="176.42" y2="462.35" xlink:href="#_未命名的渐变_14"/>
    <clipPath id="clippath-3">
      <path class="st0" d="M154.75,457.54l19.1-6.86c4.01-1.44,3.24-4.25-1.71-6.28h0c-4.95-2.03-12.21-2.51-16.22-1.07l-19.1,6.86c-4.01,1.44-3.24,4.25,1.71,6.28h0c4.95,2.03,12.21,2.51,16.22,1.07Z"/>
    </clipPath>
    <linearGradient id="_未命名的渐变_1342" data-name="未命名的渐变 134" x1="2665.05" y1="1632.91" x2="-154.93" y2="1632.91" xlink:href="#_未命名的渐变_134"/>
    <linearGradient id="_未命名的渐变_142" data-name="未命名的渐变 142" x1="-138.82" y1="1624.25" x2="1282.13" y2="1624.25" gradientUnits="userSpaceOnUse">
      <stop offset="0" stop-color="#fff"/>
      <stop offset=".96" stop-color="#fff"/>
      <stop offset="1" stop-color="#fff" stop-opacity="0"/>
    </linearGradient>
    <linearGradient id="_未命名的渐变_411" data-name="未命名的渐变 411" x1="1367.98" y1="657.59" x2="1827.72" y2="657.59" gradientUnits="userSpaceOnUse">
      <stop offset="0" stop-color="#006aff"/>
      <stop offset=".49" stop-color="#006aff"/>
      <stop offset=".51" stop-color="#08f"/>
    </linearGradient>
    <clipPath id="clippath-4">
      <path class="st0" d="M1824.26,606.3l-202.94,72.32c-13.1,4.67-27.47,4.74-40.61.2l-209.22-72.21c-4.65-1.61-4.68-7.95-.05-9.6l202.94-72.32c13.1-4.67,27.47-4.74,40.61-.2l209.22,72.21c4.65,1.61,4.68,7.95.05,9.6Z"/>
    </clipPath>
    <linearGradient id="_未命名的渐变_424" data-name="未命名的渐变 424" x1="1786.89" y1="600.35" x2="1408.8" y2="600.35" gradientUnits="userSpaceOnUse">
      <stop offset="0" stop-color="#0039c6"/>
      <stop offset=".49" stop-color="#003dc9"/>
      <stop offset=".51" stop-color="#006aff"/>
    </linearGradient>
    <clipPath id="clippath-5">
      <path class="st0" d="M1594.07,664.71c-2.81-.41-5.57-1.14-8.25-2.07l-175.81-60.68c-1.6-.55-1.61-2.73-.02-3.3l170-60.58c6.88-2.45,14.24-3.18,21.64-2.1,2.81.41,5.57,1.14,8.25,2.07l175.82,60.68c1.6.55,1.61,2.73.02,3.3l-170,60.58c-6.88,2.45-14.24,3.18-21.64,2.1Z"/>
    </clipPath>
    <linearGradient id="_未命名的渐变_233" data-name="未命名的渐变 233" x1="1720.38" y1="5717.54" x2="1502.49" y2="5717.54" gradientTransform="translate(0 6805.47) scale(1 -1)" gradientUnits="userSpaceOnUse">
      <stop offset="0" stop-color="#fff" stop-opacity="0"/>
      <stop offset="1" stop-color="#fff"/>
    </linearGradient>
    <linearGradient id="_未命名的渐变_2331" data-name="未命名的渐变 233" x1="-2315.27" y1="5551.65" x2="-2641.75" y2="5551.65" gradientTransform="translate(-1770.14 6052.7) rotate(-180)" xlink:href="#_未命名的渐变_233"/>
    <linearGradient id="_未命名的渐变_2332" data-name="未命名的渐变 233" x1="-2601.67" y1="5681.05" x2="-2796.64" y2="5681.05" gradientTransform="translate(-1770.14 6052.7) rotate(-180)" xlink:href="#_未命名的渐变_233"/>
    <linearGradient id="_未命名的渐变_2333" data-name="未命名的渐变 233" x1="-2198.99" y1="392.91" x2="-2054.67" y2="392.91" gradientTransform="translate(-1770.14 59.17) rotate(-180) scale(1 -1)" xlink:href="#_未命名的渐变_233"/>
    <linearGradient id="_未命名的渐变_2334" data-name="未命名的渐变 233" x1="344.22" y1="1452.42" x2="809.51" y2="1452.42" gradientTransform="matrix(1,0,0,1,0,0)" xlink:href="#_未命名的渐变_233"/>
    <linearGradient id="_未命名的渐变_2335" data-name="未命名的渐变 233" x1="63.94" y1="1213.1" x2="279.52" y2="1213.1" gradientTransform="matrix(1,0,0,1,0,0)" xlink:href="#_未命名的渐变_233"/>
    <linearGradient id="_未命名的渐变_2336" data-name="未命名的渐变 233" x1="1098.73" y1="1509.74" x2="1195.79" y2="1509.74" gradientTransform="matrix(1,0,0,1,0,0)" xlink:href="#_未命名的渐变_233"/>
    <linearGradient id="_未命名的渐变_370" data-name="未命名的渐变 370" x1="860" y1="563.8" x2="860" y2="0" gradientUnits="userSpaceOnUse">
      <stop offset="0" stop-color="#0181fd" stop-opacity="0"/>
      <stop offset=".1" stop-color="#0181fd" stop-opacity=".1"/>
      <stop offset=".73" stop-color="#0181fd" stop-opacity=".74"/>
      <stop offset="1" stop-color="#0181fd"/>
    </linearGradient>
    <linearGradient id="_未命名的渐变_251" data-name="未命名的渐变 251" x1="1421.59" y1="926.71" x2="296.29" y2="926.71" gradientUnits="userSpaceOnUse">
      <stop offset="0" stop-color="#61a1ff"/>
      <stop offset=".29" stop-color="#5499ff"/>
      <stop offset=".83" stop-color="#3386ff"/>
      <stop offset="1" stop-color="#277fff"/>
    </linearGradient>
    <linearGradient id="_未命名的渐变_30" data-name="未命名的渐变 30" x1="1421.59" y1="926.71" x2="296.29" y2="926.71" gradientUnits="userSpaceOnUse">
      <stop offset="0" stop-color="#fff"/>
      <stop offset=".1" stop-color="#fff" stop-opacity=".89"/>
      <stop offset=".73" stop-color="#fff" stop-opacity=".26"/>
      <stop offset="1" stop-color="#fff" stop-opacity="0"/>
    </linearGradient>
    <linearGradient id="_未命名的渐变_90" data-name="未命名的渐变 90" x1="296.29" y1="930.46" x2="1122.49" y2="930.46" gradientUnits="userSpaceOnUse">
      <stop offset="0" stop-color="#067031"/>
      <stop offset=".47" stop-color="#07843c"/>
      <stop offset="1" stop-color="#067031"/>
    </linearGradient>
    <linearGradient id="_未命名的渐变_111" data-name="未命名的渐变 111" x1="947.7" y1="1157.32" x2="770.18" y2="666.87" gradientUnits="userSpaceOnUse">
      <stop offset="0" stop-color="#52e27a"/>
      <stop offset=".18" stop-color="#45da6f"/>
      <stop offset=".51" stop-color="#24c655"/>
      <stop offset=".73" stop-color="#0ab740"/>
    </linearGradient>
    <linearGradient id="_未命名的渐变_103" data-name="未命名的渐变 103" x1="1421.37" y1="912.02" x2="596.13" y2="912.02" gradientUnits="userSpaceOnUse">
      <stop offset="0" stop-color="#fff"/>
      <stop offset=".04" stop-color="#fff" stop-opacity=".89"/>
      <stop offset=".29" stop-color="#fff" stop-opacity=".26"/>
      <stop offset=".4" stop-color="#fff" stop-opacity="0"/>
    </linearGradient>
    <linearGradient id="_未命名的渐变_2511" data-name="未命名的渐变 251" y1="881.1" y2="881.1" xlink:href="#_未命名的渐变_251"/>
    <linearGradient id="_未命名的渐变_301" data-name="未命名的渐变 30" y1="881.1" y2="881.1" xlink:href="#_未命名的渐变_30"/>
    <linearGradient id="_未命名的渐变_98" data-name="未命名的渐变 98" x1="828.22" y1="1160.15" x2="434.44" y2="72.19" gradientUnits="userSpaceOnUse">
      <stop offset="0" stop-color="#b74a00"/>
      <stop offset=".23" stop-color="#bc5500"/>
      <stop offset=".44" stop-color="#b74a00"/>
    </linearGradient>
    <linearGradient id="_未命名的渐变_119" data-name="未命名的渐变 119" x1="944.44" y1="1102.73" x2="561.46" y2="44.6" gradientUnits="userSpaceOnUse">
      <stop offset="0" stop-color="#ffd04d"/>
      <stop offset=".04" stop-color="#ffc740"/>
      <stop offset=".13" stop-color="#ffb11f"/>
      <stop offset=".18" stop-color="#ffa005"/>
    </linearGradient>
    <linearGradient id="_未命名的渐变_101" data-name="未命名的渐变 101" x1="1421.35" y1="866.03" x2="596.12" y2="866.03" gradientUnits="userSpaceOnUse">
      <stop offset="0" stop-color="#fff"/>
      <stop offset=".04" stop-color="#fff" stop-opacity=".89"/>
      <stop offset=".28" stop-color="#fff" stop-opacity=".26"/>
      <stop offset=".38" stop-color="#fff" stop-opacity="0"/>
    </linearGradient>
    <linearGradient id="_未命名的渐变_5" data-name="未命名的渐变 5" x1="1122.49" y1="825.15" x2="296.29" y2="825.15" gradientUnits="userSpaceOnUse">
      <stop offset="0" stop-color="#0036c9"/>
      <stop offset=".47" stop-color="#0b61ff"/>
      <stop offset="1" stop-color="#0135c7"/>
    </linearGradient>
    <linearGradient id="_未命名的渐变_10" data-name="未命名的渐变 10" x1="1421.59" y1="898.85" x2="1122.49" y2="898.85" gradientUnits="userSpaceOnUse">
      <stop offset="0" stop-color="#3688ff"/>
      <stop offset=".54" stop-color="#2981ff"/>
      <stop offset="1" stop-color="#1b7aff"/>
    </linearGradient>
    <linearGradient id="_未命名的渐变_2512" data-name="未命名的渐变 251" y1="711.62" y2="711.62" xlink:href="#_未命名的渐变_251"/>
    <linearGradient id="_未命名的渐变_302" data-name="未命名的渐变 30" y1="711.62" y2="711.62" xlink:href="#_未命名的渐变_30"/>
    <linearGradient id="_未命名的渐变_382" data-name="未命名的渐变 382" x1="944.44" y1="948.11" x2="561.46" y2="-110.01" gradientUnits="userSpaceOnUse">
      <stop offset="0" stop-color="#4d9eff"/>
      <stop offset=".54" stop-color="#4091ff"/>
      <stop offset=".79" stop-color="#398aff"/>
    </linearGradient>
    <linearGradient id="_未命名的渐变_366" data-name="未命名的渐变 366" x1="1249.01" y1="486.66" x2="468.86" y2="937.08" gradientUnits="userSpaceOnUse">
      <stop offset="0" stop-color="#fff"/>
      <stop offset=".03" stop-color="#fff" stop-opacity=".89"/>
      <stop offset=".2" stop-color="#fff" stop-opacity=".26"/>
      <stop offset=".28" stop-color="#fff" stop-opacity="0"/>
    </linearGradient>
    <linearGradient id="_未命名的渐变_100" data-name="未命名的渐变 100" x1="1265.16" y1="966.53" x2="1277.48" y2="1036.4" gradientUnits="userSpaceOnUse">
      <stop offset="0" stop-color="#fff"/>
      <stop offset=".06" stop-color="#fff" stop-opacity=".89"/>
      <stop offset=".42" stop-color="#fff" stop-opacity=".26"/>
      <stop offset=".57" stop-color="#fff" stop-opacity="0"/>
    </linearGradient>
    <linearGradient id="_未命名的渐变_1001" data-name="未命名的渐变 100" x1="1265.2" y1="1012.41" x2="1277.47" y2="1081.99" xlink:href="#_未命名的渐变_100"/>
    <linearGradient id="_未命名的渐变_351" data-name="未命名的渐变 351" x1="595.44" y1="1114.31" x2="595.44" y2="951.09" gradientUnits="userSpaceOnUse">
      <stop offset="0" stop-color="#fff" stop-opacity=".5"/>
      <stop offset=".25" stop-color="#d4e9ff" stop-opacity=".39"/>
      <stop offset=".78" stop-color="#67b3ff" stop-opacity=".12"/>
      <stop offset="1" stop-color="#399cff" stop-opacity="0"/>
    </linearGradient>
    <linearGradient id="_未命名的渐变_433" data-name="未命名的渐变 433" x1="1389.06" y1="1201.76" x2="1549.37" y2="1201.76" gradientUnits="userSpaceOnUse">
      <stop offset="0" stop-color="#006aff"/>
      <stop offset=".3" stop-color="#006aff"/>
      <stop offset=".37" stop-color="#08f"/>
    </linearGradient>
    <linearGradient id="_未命名的渐变_4331" data-name="未命名的渐变 433" x1="1281.66" y1="1239.61" x2="1441.97" y2="1239.61" xlink:href="#_未命名的渐变_433"/>
    <linearGradient id="_未命名的渐变_4332" data-name="未命名的渐变 433" x1="1174.26" y1="1277.46" x2="1334.57" y2="1277.46" xlink:href="#_未命名的渐变_433"/>
    <linearGradient id="_未命名的渐变_9" data-name="未命名的渐变 9" x1="1271.7" y1="785.61" x2="1271.7" y2="1012.6" gradientUnits="userSpaceOnUse">
      <stop offset="0" stop-color="#fff"/>
      <stop offset=".1" stop-color="#fff" stop-opacity=".89"/>
      <stop offset=".73" stop-color="#fff" stop-opacity=".26"/>
      <stop offset="1" stop-color="#fff" stop-opacity="0"/>
    </linearGradient>
  </defs>
  <g class="st66">
    <g id="_图层_11" data-name="_图层_1">
      <g class="st66">
        <text class="st67" transform="translate(-3639.57 380.02)"><tspan class="st95" x="0" y="0">登录页插图尺寸：</tspan><tspan class="st44" x="759.36" y="0">1720</tspan><tspan class="st95" x="925.66" y="0">x</tspan><tspan class="st45" x="969.89" y="0">1800</tspan><tspan class="st95" x="1136.18" y="0">，主画面</tspan><tspan class="st45" x="1515.86" y="0" xml:space="preserve"> 1200</tspan><tspan class="st95" x="1708.55" y="0">x</tspan><tspan class="st44" x="1752.78" y="0">1800</tspan></text>
      </g>
      <g>
        <rect class="st63" x="-40" width="1800" height="1800"/>
        <path class="st29" d="M463.24,414.02l37.7-13.25c5.95-2.09,12.44-2.07,18.38.06l37.07,13.31h0l46.84,16.82,198.52,70.02c3.3,1.18,3.28,5.85-.02,7.01l-27.82,9.78c-5.95,2.09-12.44,2.07-18.38-.06l-199.2-70.26-46.24-16.61h0l-46.84-16.82Z"/>
        <g class="st94">
          <g>
            <path class="st73" d="M2646.73,37.55l-1386.96,490.59c-20.33,7.17-53.3,7.17-73.63,0l-697.24-247.65c-20.33-7.17-20.33-18.79,0-25.95L1875.87-236.05c20.33-7.17,53.3-7.17,73.63,0L2646.73,11.6c20.33,7.17,20.33,18.79,0,25.95Z"/>
            <path class="st19" d="M2215.58,127.63l-963.25,340.72c-14.12,4.98-37.01,4.98-51.13,0l-502.51-178.52c-14.12-4.98-14.12-13.05,0-18.03L1661.94-68.92c14.12-4.98,37.01-4.98,51.13,0l502.51,178.52c14.12,4.98,14.12,13.05,0,18.03Z"/>
            <path class="st6" d="M477.01,273.91c2.53-2.41,6.53-4.67,12.02-6.6L1875.99-223.28c20.33-7.17,53.3-7.17,73.63,0"/>
            <path class="st79" d="M2646.73,11.6l-697.24-247.65c-20.33-7.17-53.29-7.17-73.63,0L488.91,254.54c-10.21,3.6-15.29,8.32-15.24,13.04.12-.04.22-.09.34-.13L1860.96-223.14c20.33-7.17,53.29-7.17,73.63,0L2631.83,24.51c10.12,3.57,15.19,8.24,15.24,12.91,19.98-7.18,19.88-18.7-.34-25.82Z"/>
            <path class="st62" d="M488.88,267.32L1875.84-223.27c20.33-7.17,53.3-7.17,73.63,0L2646.7,24.38c5.49,1.93,9.44,4.2,11.97,6.6,6.83-6.52,2.88-14.12-11.97-19.35l-697.24-247.65c-20.33-7.17-53.29-7.17-73.63,0L488.88,254.58c-14.85,5.23-18.8,12.84-11.97,19.35,2.53-2.41,6.48-4.67,11.97-6.6Z"/>
            <path class="st13" d="M1910.8-240.3c-20.2,0-33.79,5.02-33.79,5.02L490.06,255.31s-15.21,4.66-15.21,12.01"/>
          </g>
          <g>
            <path class="st73" d="M1671.39-317.38L284.43,173.21c-20.33,7.17-53.3,7.17-73.63,0L-486.43-74.44c-20.33-7.17-20.33-18.79,0-25.95l1386.96-490.59c20.33-7.17,53.3-7.17,73.63,0l697.24,247.65c20.33,7.17,20.33,18.79,0,25.95Z"/>
            <path class="st19" d="M1240.24-227.3L277,113.41c-14.12,4.98-37.01,4.98-51.13,0L-276.65-65.11c-14.12-4.98-14.12-13.05,0-18.03l963.25-340.72c14.12-4.98,37.01-4.98,51.13,0l502.51,178.52c14.12,4.98,14.12,13.05,0,18.03Z"/>
            <path class="st6" d="M-498.32-81.03c2.53-2.41,6.53-4.67,12.02-6.6l1386.96-490.59c20.33-7.17,53.3-7.17,73.63,0"/>
            <path class="st79" d="M1671.39-343.33l-697.24-247.65c-20.33-7.17-53.29-7.17-73.63,0L-486.43-100.4c-10.21,3.6-15.29,8.32-15.24,13.04.12-.04.22-.09.34-.13l1386.96-490.59c20.33-7.17,53.29-7.17,73.63,0l697.24,247.65c10.12,3.57,15.19,8.24,15.24,12.91,19.98-7.18,19.88-18.7-.34-25.82Z"/>
            <path class="st42" d="M-486.46-87.61l1386.96-490.59c20.33-7.17,53.3-7.17,73.63,0l697.24,247.65c5.49,1.93,9.44,4.2,11.97,6.6,6.83-6.52,2.88-14.12-11.97-19.35l-697.24-247.65c-20.33-7.17-53.29-7.17-73.63,0L-486.46-100.36c-14.85,5.23-18.8,12.84-11.97,19.35,2.53-2.41,6.48-4.67,11.97-6.6Z"/>
            <path class="st15" d="M935.47-595.23c-20.2,0-33.79,5.02-33.79,5.02L-485.28-99.62s-15.21,4.66-15.21,12.01"/>
          </g>
          <g>
            <path class="st93" d="M249.69,976.72h0c16.88,5.98,44.25,5.98,61.13,0l161.44-57.2c16.88-5.98,16.88-15.68,0-21.66h0c-16.88-5.98-44.25-5.98-61.13,0l-161.44,57.2c-16.88,5.98-16.88,15.68,0,21.66Z"/>
            <path d="M280.22,972.48c6.31,0,12.2-1.17,16.15-3.21,2.7-1.4,4.28-3.14,4.21-4.67-.07-1.61-2-3.97-7.2-5.75-3.73-1.28-8.44-1.99-13.25-1.99-6.31,0-12.2,1.17-16.15,3.21-2.7,1.4-4.28,3.14-4.21,4.67.07,1.61,2,3.96,7.2,5.75,3.73,1.28,8.44,1.99,13.25,1.99Z"/>
            <g>
              <g>
                <path class="st28" d="M267.29,932.38h25.82l-.06,31.94h0c.01.95-.98,2.04-2.66,2.91-2.5,1.29-6.22,2.03-10.22,2.03-3.05,0-6.02-.45-8.38-1.26-3.29-1.13-4.51-2.62-4.56-3.64,0-.01,0-.03,0-.04h0l.06-31.94Z"/>
                <path class="st75" d="M280.23,937.29c3.99,0,7.72-.74,10.22-2.03,1.71-.89,2.71-1.99,2.66-2.95-.05-1.02-1.27-2.51-4.56-3.64-2.36-.81-5.34-1.26-8.38-1.26-3.99,0-7.72.74-10.22,2.03-1.71.89-2.71,1.99-2.66,2.95.05,1.02,1.27,2.51,4.56,3.64,2.36.81,5.34,1.26,8.38,1.26Z"/>
              </g>
              <g>
                <path class="st28" d="M272.53,928h15.33v3.84s0,0,0,0c0,.57-.58,1.21-1.58,1.73-1.48.77-3.69,1.21-6.06,1.21-1.81,0-3.58-.27-4.98-.75-1.95-.67-2.68-1.56-2.71-2.16,0,0,0-.02,0-.03h0v-3.84Z"/>
                <path class="st75" d="M280.22,930.92c2.37,0,4.58-.44,6.06-1.21,1.02-.53,1.61-1.18,1.58-1.75-.03-.6-.75-1.49-2.71-2.16-1.4-.48-3.17-.75-4.98-.75-2.37,0-4.58.44-6.06,1.21-1.02.53-1.61,1.18-1.58,1.75.03.6.75,1.49,2.71,2.16,1.4.48,3.17.75,4.98.75Z"/>
              </g>
            </g>
          </g>
          <path class="st58" d="M595.91,902.22l-300.55,105.79c97.1,50.95,199.34,82.22,300.55,106.3v-212.08Z"/>
          <path class="st54" d="M595.91,902.22l-300.55,105.79c97.1,50.95,199.34,82.22,300.55,106.3v-212.08Z"/>
          <g class="st80">
            <line class="st14" x1="423.01" y1="1063.72" x2="1051.53" y2="1287.54"/>
            <line class="st14" x1="1788.56" y1="482.43" x2="-1420.92" y2="1612.11"/>
            <line class="st14" x1="-175.56" y1="1300.56" x2="940.43" y2="1696.63"/>
            <line class="st14" x1="-126.97" y1="204.59" x2="1957.53" y2="944.37"/>
            <line class="st14" x1="1842.41" y1="1006.97" x2="-78.54" y2="1683.1"/>
            <line class="st14" x1="509.31" y1="1094.22" x2="-349.25" y2="1396.42"/>
            <path class="st32" d="M1059.96,1289.84c-5.89,2.09-15.44,2.09-21.33,0-5.89-2.09-5.89-5.48,0-7.57s15.44-2.09,21.33,0c5.89,2.09,5.89,5.48,0,7.57Z"/>
            <path class="st32" d="M1161.57,711.47c-5.89,2.09-15.44,2.09-21.33,0-5.89-2.09-5.89-5.48,0-7.57,5.89-2.09,15.44-2.09,21.33,0,5.89,2.09,5.89,5.48,0,7.57Z"/>
            <g>
              <line class="st14" x1="533.05" y1="389.12" x2="216.69" y2="501.92"/>
              <line class="st23" x1="663.43" y1="342.36" x2="533.05" y2="389.12"/>
            </g>
            <path class="st32" d="M1422.42,619.1c-5.89,2.09-15.44,2.09-21.33,0s-5.89-5.48,0-7.57c5.89-2.09,15.44-2.09,21.33,0,5.89,2.09,5.89,5.48,0,7.57Z"/>
          </g>
          <path class="st55" d="M595.91,902.22v212.08c193.23,45.97,382.73,65.76,525.65,146.38l299.1-105.28c-281.04-148.74-606.97-130.34-824.75-253.19Z"/>
          <path class="st9" d="M279.9,925.06v-14.47c0-10.85-10.73-18.43-20.96-14.82l-1436.38,506.99"/>
          <line class="st22" x1="160.45" y1="930.54" x2="-1177.44" y2="1402.77"/>
          <line class="st22" x1="237.03" y1="903.51" x2="155.89" y2="932.15"/>
          <g>
            <g>
              <path class="st29" d="M163.38,476.3l133.39,47.62c3.17,1.13,3.16,3.95,0,5.08l-132.63,47.29c-6.16,2.2-13.74,2.19-19.9,0l-133.39-47.62c-3.17-1.13-3.16-3.95,0-5.08l132.63-47.29c6.16-2.2,13.74-2.19,19.9,0Z"/>
              <path class="st91" d="M25.74,522.14l7.02,2.51c1.59.57,1.59,1.99,0,2.56l-6.96,2.48c-1.13.4-2.52.4-3.65,0l-7.02-2.51c-1.59-.57-1.59-1.99,0-2.56l6.96-2.48c1.13-.4,2.52-.4,3.65,0Z"/>
              <path class="st91" d="M155.6,567.52l7.02,2.51c1.59.57,1.59,1.99,0,2.56l-6.96,2.48c-1.13.4-2.52.4-3.65,0l-7.02-2.51c-1.59-.57-1.59-1.99,0-2.56l6.96-2.48c1.13-.4,2.52-.4,3.65,0Z"/>
              <path class="st91" d="M283.72,522.52l7.02,2.51c1.59.57,1.59,1.99,0,2.56l-6.96,2.48c-1.13.4-2.52.4-3.65,0l-7.02-2.51c-1.59-.57-1.59-1.99,0-2.56l6.96-2.48c1.13-.4,2.52-.4,3.65,0Z"/>
              <path class="st91" d="M38.78,516.69h0c.58,0,1.16.09,1.66.27l7.02,2.51c.53.19.86.5.86.81,0,.31-.33.62-.86.81l-6.96,2.48c-.5.18-1.07.27-1.65.27s-1.16-.09-1.66-.27l-7.02-2.51c-.53-.19-.86-.5-.86-.81,0-.31.33-.62.86-.81l6.96-2.48c.5-.18,1.07-.27,1.66-.27M38.78,516.19c-.63,0-1.26.1-1.82.3l-6.96,2.48c-1.59.57-1.6,1.99,0,2.56l7.02,2.51c.56.2,1.19.3,1.82.3s1.26-.1,1.82-.3l6.96-2.48c1.59-.57,1.6-1.99,0-2.56l-7.02-2.51c-.56-.2-1.19-.3-1.82-.3h0Z"/>
              <path class="st91" d="M53.65,511.04h0c.58,0,1.16.09,1.66.27l7.02,2.51c.53.19.86.5.86.81,0,.31-.33.62-.86.81l-6.96,2.48c-.5.18-1.07.27-1.65.27s-1.16-.09-1.66-.27l-7.02-2.51c-.53-.19-.86-.5-.86-.81,0-.31.33-.62.86-.81l6.96-2.48c.5-.18,1.07-.27,1.66-.27M53.65,510.54c-.63,0-1.26.1-1.82.3l-6.96,2.48c-1.59.57-1.6,1.99,0,2.56l7.02,2.51c.56.2,1.19.3,1.82.3s1.26-.1,1.82-.3l6.96-2.48c1.59-.57,1.6-1.99,0-2.56l-7.02-2.51c-.56-.2-1.19-.3-1.82-.3h0Z"/>
              <path class="st34" d="M138.7,545.93c6.54,0,12.34-.84,16.75-2.42l49.47-17.76c5.17-1.86,8.1-4.64,8.26-7.82.2-4.18-4.36-8.49-12.52-11.84-8.03-3.29-18.75-5.26-28.68-5.26-6.54,0-12.34.84-16.75,2.42l-49.47,17.76c-5.17,1.86-8.1,4.64-8.26,7.82-.2,4.18,4.36,8.49,12.52,11.84,8.03,3.29,18.75,5.26,28.68,5.26Z"/>
              <g>
                <path class="st86" d="M100.73,473.11h47.75v2.71s8.37-3.01,8.37-3.01c1.59-.57,3.4-1.01,5.34-1.35v-8.74h47.75v54.05h-.02c.15,2.58-2.01,4.94-6.63,6.6l-49.47,17.76c-10.38,3.73-29.19,2.49-42.01-2.77-7-2.87-10.74-6.34-11.03-9.51h-.04v-55.75Z"/>
                <path class="st65" d="M153.82,486.01l49.47-17.76c10.38-3.73,8.4-11.01-4.43-16.27h0c-12.82-5.26-31.63-6.5-42.01-2.77l-49.47,17.76c-10.38,3.73-8.4,11.01,4.43,16.27h0c12.82,5.26,31.63,6.5,42.01,2.77Z"/>
                <g class="st71">
                  <path class="st81" d="M154.14,485.11l48.83-17.53c10.24-3.68,8.29-10.87-4.37-16.06h0c-12.66-5.19-31.22-6.41-41.47-2.74l-48.83,17.53c-10.24,3.68-8.29,10.87,4.37,16.06h0c12.66,5.19,31.22,6.41,41.47,2.74Z"/>
                  <path class="st81" d="M154.14,485.11l48.83-17.53c10.24-3.68,8.29-10.87-4.37-16.06h0c-12.66-5.19-31.22-6.41-41.47-2.74l-48.83,17.53c-10.24,3.68-8.29,10.87,4.37,16.06h0c12.66,5.19,31.22,6.41,41.47,2.74Z"/>
                </g>
              </g>
            </g>
            <g>
              <path class="st59" d="M134.26,452.56h18.43v1.05s3.23-1.16,3.23-1.16c.61-.22,1.31-.39,2.06-.52v-3.37h18.43v8.81s0,8.55,0,8.55c.06.99-.78,1.91-2.56,2.55l-19.1,6.86c-4.01,1.44-11.27.96-16.22-1.07-2.7-1.11-4.15-2.45-4.26-3.67h-.02v-18.01Z"/>
              <path class="st65" d="M154.75,457.54l19.1-6.86c4.01-1.44,3.24-4.25-1.71-6.28h0c-4.95-2.03-12.21-2.51-16.22-1.07l-19.1,6.86c-4.01,1.44-3.24,4.25,1.71,6.28h0c4.95,2.03,12.21,2.51,16.22,1.07Z"/>
              <g class="st69">
                <path class="st81" d="M154.88,457.19l18.85-6.77c3.95-1.42,3.2-4.19-1.69-6.2h0c-4.89-2-12.05-2.48-16.01-1.06l-18.85,6.77c-3.95,1.42-3.2,4.19,1.69,6.2h0c4.89,2,12.05,2.48,16.01,1.06Z"/>
                <path class="st81" d="M154.88,457.19l18.85-6.77c3.95-1.42,3.2-4.19-1.69-6.2h0c-4.89-2-12.05-2.48-16.01-1.06l-18.85,6.77c-3.95,1.42-3.2,4.19,1.69,6.2h0c4.89,2,12.05,2.48,16.01,1.06Z"/>
              </g>
            </g>
          </g>
          <path class="st29" d="M1574.7,731.6l208.63-75c8.1-2.9,16.95-2.9,25.05,0l342.54,120.72c2.35.84,2.35,4.16,0,5l-152.93,93.54c-8.99,3.21-18.81,3.21-27.79,0l-395.5-139.26c-2.35-.84-2.35-4.16,0-5Z"/>
          <path class="st9" d="M155.92,449.14v-18.25c0-23.52,19.07-36.02,42.59-27.92h0c23.52,8.1,42.59,33.73,42.59,57.25v34.72c0,27.2,22.05,56.83,49.24,66.2l130.5,44.93"/>
          <path class="st10" d="M224.1,420.31c10.33,11.33,17.01,25.99,17.01,39.91v34.72c0,27.2,22.05,56.83,49.24,66.2l130.5,44.93"/>
          <path class="st10" d="M155.92,449.14v-18.25c0-23.52,19.07-36.02,42.59-27.92h0"/>
          <g>
            <path class="st73" d="M2649.81,1878.08l-1386.96,490.59c-20.33,7.17-53.3,7.17-73.63,0L-139.77,1897.16c-20.33-7.17-20.33-18.79,0-25.95l1386.96-490.59c20.33-7.17,53.3-7.17,73.63,0l1328.99,471.51c20.33,7.17,20.33,18.79,0,25.95Z"/>
            <path class="st21" d="M-154.8,1895.99c1.11-4.09,6.12-8.08,15.01-11.22l1386.96-490.59c20.33-7.17,53.3-7.17,73.63,0"/>
            <path d="M2649.81,1852.12l-1328.99-471.51c-20.33-7.17-53.29-7.17-73.63,0L-139.77,1871.2c-10.21,3.6-15.29,8.32-15.24,13.04.12-.04.22-.09.34-.13l1386.96-490.59c20.33-7.17,53.29-7.17,73.63,0l1328.99,471.51c10.12,3.57,15.19,8.24,15.24,12.91,19.98-7.18,19.88-18.7-.34-25.82Z"/>
            <path class="st41" d="M-139.73,1883.96l1386.96-490.59c20.33-7.17,53.3-7.17,73.63,0l1328.99,471.51c5.49,1.93,9.44,4.2,11.97,6.6,6.83-6.52,2.88-14.12-11.97-19.35l-1328.99-471.51c-20.33-7.17-53.29-7.17-73.63,0L-139.73,1871.21c-14.85,5.23-18.8,12.84-11.97,19.35,2.53-2.41,6.48-4.67,11.97-6.6Z"/>
            <path class="st20" d="M-138.62,1872.07l1386.96-490.59s13.58-5.02,33.79-5.02"/>
          </g>
          <path class="st12" d="M595.91,902.22c217.78,122.85,543.71,104.45,824.75,253.19l-299.1,105.28c-217.78-122.85-543.71-104.45-826.2-252.68l300.55-105.79Z"/>
          <g>
            <path class="st35" d="M1823.48,664.6l-208.17,71.81c-13.1,4.67-27.47,4.74-40.61.2l-239.87-85.24c-4.65-1.61-4.68-7.95-.05-9.6l201.23-68.93c13.1-4.67,27.47-4.74,40.61-.2l246.81,82.37c4.65,1.61,4.68,7.95.05,9.6Z"/>
            <path class="st49" d="M1827.72,657.59h-.02c.06,2.05-1.09,4.13-3.48,4.95l-209.22,72.21c-13.14,4.54-27.52,4.47-40.61-.2l-202.94-72.32c-2.25-.8-3.38-2.71-3.43-4.65h-.02v-55.92h151.19l61.54-21.24c13.14-4.54,27.52-4.47,40.61.2l59.04,21.04h147.36v55.92Z"/>
            <path class="st64" d="M1824.26,606.3l-202.94,72.32c-13.1,4.67-27.47,4.74-40.61.2l-209.22-72.21c-4.65-1.61-4.68-7.95-.05-9.6l202.94-72.32c13.1-4.67,27.47-4.74,40.61-.2l209.22,72.21c4.65,1.61,4.68,7.95.05,9.6Z"/>
            <g class="st70">
              <path class="st81" d="M1824.26,604.48l-202.94,72.32c-13.1,4.67-27.47,4.74-40.61.2l-209.22-72.21c-4.65-1.61-4.68-7.95-.05-9.6l202.94-72.32c13.1-4.67,27.47-4.74,40.61-.2l209.22,72.21c4.65,1.61,4.68,7.95.05,9.6Z"/>
            </g>
            <path class="st48" d="M1594.07,664.71c-2.81-.41-5.57-1.14-8.25-2.07l-175.81-60.68c-1.6-.55-1.61-2.73-.02-3.3l170-60.58c6.88-2.45,14.24-3.18,21.64-2.1,2.81.41,5.57,1.14,8.25,2.07l175.82,60.68c1.6.55,1.61,2.73.02,3.3l-170,60.58c-6.88,2.45-14.24,3.18-21.64,2.1Z"/>
            <g class="st72">
              <path class="st81" d="M1594.07,667.32c-2.81-.41-5.57-1.14-8.25-2.07l-175.81-60.68c-1.6-.55-1.61-2.73-.02-3.3l170-60.58c6.88-2.45,14.24-3.18,21.64-2.1,2.81.41,5.57,1.14,8.25,2.07l175.82,60.68c1.6.55,1.61,2.73.02,3.3l-170,60.58c-6.88,2.45-14.24,3.18-21.64,2.1Z"/>
            </g>
            <path class="st91" d="M1606.34,675c-3.8,1.35-9.96,1.35-13.76,0-3.8-1.35-3.8-3.53,0-4.88,3.8-1.35,9.96-1.35,13.76,0,3.8,1.35,3.8,3.53,0,4.88Z"/>
            <path class="st91" d="M1601.18,530.87c-3.8,1.35-9.96,1.35-13.76,0-3.8-1.35-3.8-3.53,0-4.88,3.8-1.35,9.96-1.35,13.76,0,3.8,1.35,3.8,3.53,0,4.88Z"/>
            <path class="st91" d="M1393.99,603.48c-3.8,1.35-9.96,1.35-13.76,0-3.8-1.35-3.8-3.53,0-4.88,3.8-1.35,9.96-1.35,13.76,0,3.8,1.35,3.8,3.53,0,4.88Z"/>
            <path class="st91" d="M1816.03,603.48c-3.8,1.35-9.96,1.35-13.76,0-3.8-1.35-3.8-3.53,0-4.88,3.8-1.35,9.96-1.35,13.76,0,3.8,1.35,3.8,3.53,0,4.88Z"/>
          </g>
          <g>
            <line class="st7" x1="1502.99" y1="1126.41" x2="1719.88" y2="1049.44"/>
            <line class="st3" x1="871.11" y1="558.8" x2="545.63" y2="443.29"/>
            <line class="st26" x1="1026" y1="406.06" x2="832.03" y2="337.22"/>
            <line class="st1" x1="428.34" y1="426.65" x2="285.03" y2="477.51"/>
            <line class="st2" x1="809.01" y1="1370.71" x2="344.72" y2="1534.13"/>
            <line class="st4" x1="279.02" y1="1175.34" x2="64.44" y2="1250.87"/>
            <line class="st25" x1="1195.29" y1="1492.84" x2="1099.23" y2="1526.65"/>
          </g>
          <path class="st88" d="M1402.71,1111.5h0c16.88,5.98,44.25,5.98,61.13,0l219.41-77.84c16.88-5.98,16.88-15.68,0-21.66h0c-16.88-5.98-44.25-5.98-61.13,0l-219.41,77.84c-16.88,5.98-16.88,15.68,0,21.66Z"/>
          <rect class="st52" x="-40" width="1800" height="563.8"/>
          <g>
            <path d="M1432.37,1108.31c-6.31,0-12.2-1.17-16.15-3.21-2.7-1.4-4.28-3.14-4.21-4.67.07-1.61,2-3.97,7.2-5.75,3.73-1.28,8.44-1.99,13.25-1.99,6.31,0,12.2,1.17,16.15,3.21,2.7,1.4,4.28,3.14,4.21,4.67-.07,1.61-2,3.96-7.2,5.75-3.73,1.28-8.44,1.99-13.25,1.99Z"/>
            <g>
              <g>
                <path class="st28" d="M1445.3,1068.56h-25.82l.06,31.94h0c-.01.95.98,2.04,2.66,2.91,2.5,1.29,6.22,2.03,10.22,2.03,3.05,0,6.02-.45,8.38-1.26,3.29-1.13,4.51-2.62,4.56-3.64,0-.01,0-.03,0-.04h0l-.06-31.94Z"/>
                <path class="st75" d="M1432.36,1073.48c-3.99,0-7.72-.74-10.22-2.03-1.71-.89-2.71-1.99-2.66-2.95.05-1.02,1.27-2.51,4.56-3.64,2.36-.81,5.34-1.26,8.38-1.26,3.99,0,7.72.74,10.22,2.03,1.71.89,2.71,1.99,2.66,2.95-.05,1.02-1.27,2.51-4.56,3.64-2.36.81-5.34,1.26-8.38,1.26Z"/>
              </g>
              <g>
                <path class="st28" d="M1440.05,1064.19h-15.33v3.84s0,0,0,0c0,.57.58,1.21,1.58,1.73,1.48.77,3.69,1.21,6.06,1.21,1.81,0,3.58-.27,4.98-.75,1.95-.67,2.68-1.56,2.71-2.16,0,0,0-.02,0-.03h0v-3.84Z"/>
                <path class="st75" d="M1432.37,1067.11c-2.37,0-4.58-.44-6.06-1.21-1.02-.53-1.61-1.18-1.58-1.75.03-.6.75-1.49,2.71-2.16,1.4-.48,3.17-.75,4.98-.75,2.37,0,4.58.44,6.06,1.21,1.02.53,1.61,1.18,1.58,1.75-.03.6-.75,1.49-2.71,2.16-1.4.48-3.17.75-4.98.75Z"/>
              </g>
            </g>
          </g>
          <path class="st9" d="M1432.1,1061.24v-14.39c0-8.04,5.06-15.21,12.64-17.9l226-80.28"/>
          <line class="st10" x1="1502.66" y1="1008.37" x2="1764.27" y2="915.44"/>
          <path class="st10" d="M1432.1,1061.24v-14.39c0-8.04,5.06-15.21,12.64-17.9l20.17-7.17"/>
          <g class="st36">
            <path class="st14" d="M628.37,1328.28c-91.36-15.49-200.67-54.43-244.15-86.97-43.49-32.54-4.68-46.36,86.68-30.87,91.36,15.49,200.67,54.43,244.15,86.97,43.49,32.54,4.68,46.36-86.68,30.87Z"/>
            <line class="st14" x1="451.63" y1="1427.26" x2="722.27" y2="1330.85"/>
            <line class="st14" x1="376.99" y1="1207.86" x2="106.35" y2="1304.27"/>
            <g>
              <path class="st27" d="M451.63,1427.26c15.69-5.59,14.52-17.18-7.23-33.45-43.49-32.54-152.8-71.48-244.15-86.97-45.68-7.74-78.22-8.16-93.9-2.57"/>
              <path class="st14" d="M106.35,1304.27c-15.69,5.59-14.52,17.18,7.23,33.45,43.49,32.54,152.8,71.48,244.15,86.97,45.68,7.74,78.22,8.16,93.9,2.57"/>
            </g>
            <g>
              <path class="st27" d="M541.84,1395.12c15.69-5.59,14.52-17.18-7.23-33.45-43.49-32.54-152.8-71.48-244.15-86.97-45.68-7.74-78.22-8.16-93.9-2.57"/>
              <path class="st14" d="M196.56,1272.13c-15.69,5.59-14.52,17.18,7.23,33.45,43.49,32.54,152.8,71.48,244.15,86.97,45.68,7.74,78.22,8.16,93.9,2.57"/>
            </g>
            <g>
              <path class="st27" d="M632.06,1362.99c15.69-5.59,14.52-17.18-7.23-33.45-43.49-32.54-152.8-71.48-244.15-86.97-45.68-7.74-78.22-8.16-93.9-2.57"/>
              <path class="st14" d="M286.78,1240c-15.69,5.59-14.52,17.18,7.23,33.45,43.49,32.54,152.8,71.48,244.15,86.97,45.68,7.74,78.22,8.16,93.9,2.57"/>
            </g>
            <path class="st14" d="M541.32,1338.21c-9.33,2.99-21.15,3.89-26.39,2.01-5.24-1.88-1.93-5.82,7.4-8.81,9.33-2.99,21.15-3.89,26.39-2.01,5.24,1.88,1.93,5.82-7.4,8.81Z"/>
            <path class="st14" d="M581.89,1346.65c-9.3,3-20.8,4.01-25.69,2.26-4.89-1.75-1.32-5.6,7.98-8.6,9.3-3,20.8-4.01,25.69-2.26,4.89,1.75,1.32,5.6-7.98,8.6Z"/>
            <path class="st14" d="M621.39,1352.29c-9.36,2.97-20.6,4.04-25.1,2.39-4.5-1.65-.55-5.4,8.81-8.37,9.36-2.97,20.6-4.04,25.1-2.39,4.5,1.65.55,5.4-8.81,8.37Z"/>
          </g>
          <g>
            <g>
              <path class="st31" d="M603.27,887.28c-2.15-1.18-4.31-2.35-6.44-3.55l-10.09,3.55h16.52Z"/>
              <g>
                <path class="st57" d="M596.84,747.48c217.78,122.85,543.71,104.45,824.75,253.19l-299.1,105.28c-217.78-122.85-543.71-104.45-826.2-252.68l300.55-105.79Z"/>
                <path class="st87" d="M596.74,748.57c104.79,58.99,234.62,85.43,372.05,113.41,74.23,15.11,150.98,30.74,227.27,52.21,85.33,24.01,158.31,52.25,223.03,86.29l-296.51,104.37c-105.02-59.12-235.27-85.56-373.14-113.54-74.19-15.06-150.91-30.63-227.25-52.01-85.38-23.91-158.49-52.01-223.41-85.86l297.95-104.87M596.84,747.48l-300.55,105.79c282.5,148.23,608.42,129.83,826.2,252.68l299.1-105.28c-281.05-148.74-606.97-130.34-824.75-253.19h0Z"/>
              </g>
              <path class="st88" d="M1122.49,897.86v211.84l299.1-105.28v-18.62s-201.95-64.69-299.1-87.94Z"/>
              <path class="st83" d="M596.84,751.23l-258.29,90.91-42.26-3.75v18.62c283.27,148.64,607.51,129.31,826.2,252.68v-211.84c-192.96-46.19-382.63-65.95-525.65-146.63Z"/>
              <path class="st61" d="M596.84,732.61c217.78,122.85,543.71,104.45,824.75,253.19l-299.1,105.28c-218.69-123.37-542.93-104.04-826.2-252.68l300.55-105.79Z"/>
            </g>
            <path class="st16" d="M596.38,732.77c217.78,122.85,543.71,104.45,824.75,253.19l-299.1,105.28"/>
            <g>
              <path class="st31" d="M603.27,841.67c-2.15-1.18-4.31-2.35-6.44-3.55l-10.09,3.55h16.52Z"/>
              <g>
                <path class="st38" d="M596.84,701.87c217.78,122.85,543.71,104.45,824.75,253.19l-299.1,105.28c-217.78-122.85-543.71-104.45-826.2-252.68l300.55-105.79Z"/>
                <path class="st50" d="M596.74,702.96c104.79,58.99,234.62,85.43,372.05,113.41,74.23,15.11,150.98,30.74,227.27,52.21,85.33,24.01,158.31,52.25,223.03,86.29l-296.51,104.37c-105.02-59.12-235.27-85.56-373.14-113.54-74.19-15.06-150.91-30.63-227.25-52.01-85.38-23.91-158.49-52.01-223.41-85.86l297.95-104.87M596.84,701.87l-300.55,105.79c282.5,148.23,608.42,129.83,826.2,252.68l299.1-105.28c-281.05-148.74-606.97-130.34-824.75-253.19h0Z"/>
              </g>
              <path class="st78" d="M1122.49,852.25v211.84l299.1-105.28v-18.62s-201.95-64.69-299.1-87.94Z"/>
              <path class="st84" d="M596.84,705.62l-258.29,90.91-42.26-3.75v18.62c283.27,148.64,607.51,129.31,826.2,252.68v-211.84c-192.96-46.19-382.63-65.95-525.65-146.63Z"/>
              <path class="st60" d="M596.84,687c217.78,122.85,543.71,104.45,824.75,253.19l-299.1,105.28c-218.69-123.37-542.93-104.04-826.2-252.68l300.55-105.79Z"/>
            </g>
            <path class="st17" d="M596.37,686.77c217.78,122.85,543.71,104.45,824.75,253.19l-299.1,105.28"/>
            <g>
              <path class="st33" d="M596.84,672.41l-153.04,1.85-147.51-36.09v121.28c282.5,148.23,608.42,129.83,826.2,252.68v-193.09c-192.96-46.19-382.63-65.95-525.65-146.63Z"/>
              <g>
                <path class="st31" d="M603.27,672.18c-2.15-1.18-4.31-2.35-6.44-3.55l-10.09,3.55h16.52Z"/>
                <path class="st85" d="M1307.36,822.38c-61.01-23.06-123.11,11.47-184.87-3.31v193.07l299.1-105.28v-121.28l-114.23,36.8Z"/>
              </g>
              <g>
                <path class="st37" d="M596.84,532.38c217.78,122.85,543.71,104.45,824.75,253.19l-299.1,105.28c-217.78-122.85-543.71-104.45-826.2-252.68l300.55-105.79Z"/>
                <path class="st51" d="M596.74,533.48c104.79,58.99,234.62,85.43,372.05,113.41,74.23,15.11,150.98,30.74,227.27,52.21,85.33,24.01,158.31,52.25,223.03,86.29l-296.51,104.37c-105.02-59.12-235.27-85.56-373.14-113.54-74.19-15.06-150.91-30.63-227.25-52.01-85.38-23.91-158.49-52.01-223.41-85.86l297.95-104.87M596.84,532.38l-300.55,105.79c282.5,148.23,608.42,129.83,826.2,252.68l299.1-105.28c-281.05-148.74-606.97-130.34-824.75-253.19h0Z"/>
              </g>
              <path class="st56" d="M596.84,532.38c217.78,122.85,543.71,104.45,824.75,253.19l-299.1,105.28c-218.69-123.37-542.93-104.04-826.2-252.68l300.55-105.79Z"/>
              <path class="st53" d="M596.74,533.48c104.79,58.99,234.62,85.43,372.05,113.41,74.23,15.11,150.98,30.74,227.27,52.21,85.33,24.01,158.31,52.25,223.03,86.29l-296.51,104.37c-105.5-59.4-235.6-85.74-373.35-113.62-74.06-14.99-150.64-30.5-226.91-51.85-85.31-23.88-158.46-52-223.53-85.94l297.95-104.87M596.84,532.38l-300.55,105.79c283.27,148.64,607.51,129.31,826.2,252.68l299.1-105.28c-281.05-148.74-606.97-130.34-824.75-253.19h0Z"/>
            </g>
            <polyline class="st18" points="1420.63 939.21 1420.63 958.12 1121.53 1063.4"/>
            <polyline class="st11" points="1420.65 985.09 1420.65 1003.71 1121.55 1108.99"/>
          </g>
          <path class="st19" d="M2543.43,2050.44l-1190.81,421.89c-19.15,6.78-40.16,6.89-59.38.29L64.3,2050.9c-76.6-26.28-77.15-130.18-.84-157.21l1190.81-421.89c19.15-6.78,40.16-6.89,59.38-.29l1228.93,421.72c76.6,26.28,77.15,130.18.84,157.21Z"/>
          <path class="st5" d="M4319.07,1452.38l-1190.81,439.08c-19.15,7.06-40.16,7.17-59.38.3l-1228.93-438.9c-76.6-27.36-77.15-135.48-.84-163.62l1190.81-439.08c19.15-7.06,40.16-7.17,59.38-.3l1228.93,438.9c76.6,27.36,77.15,135.48.84,163.62Z"/>
        </g>
        <line class="st8" x1="595.44" y1="1114.31" x2="595.44" y2="951.09"/>
        <g>
          <path d="M449.12,1136.23l44.49-15.94c9.52-3.41,19.92-3.44,29.45-.08l59.53,20.97h0l75.23,26.5,318.84,110.28c5.29,1.87,5.31,9.35.03,11.24l-44.49,15.94c-9.52,3.41-19.92,3.44-29.45.08l-319.93-110.67-74.27-26.17h0l-59.4-20.93c-5.29-1.87-5.31-9.35-.03-11.24Z"/>
          <path class="st30" d="M698.8,1206.85l-96.98-34.17v3.74l91.68,32.31c1.46.52,3.83.52,5.3,0,1.46-.52,1.46-1.36,0-1.88Z"/>
          <g>
            <path class="st77" d="M625.95,1180.2l-116.78-41.15c-2.22-.79-5.82-.79-8.05,0h0c-2.22.79-2.22,2.06,0,2.85l124.83,43.98v-5.68Z"/>
            <g>
              <path class="st90" d="M605.49,1189.42l.25.09c5.4,1.91,11.31,1.88,16.69-.09h0s-11.47-7.4-11.47-7.4l-3.86,2.87"/>
              <path class="st76" d="M592.48,1154.34l.11-.49c.37-1.6,1.54-2.91,3.09-3.46h0s2.13,3.27,2.13,3.27l-5.33.68Z"/>
              <path class="st43" d="M643.33,1139.92h0c1.57.58,2.76,1.9,3.18,3.52l.34,1.34-5.58,1.45-1.76-4.76,3.83-1.55Z"/>
              <rect class="st76" x="602.1" y="1153.29" width="9.26" height="8.27"/>
              <g>
                <path class="st74" d="M592.48,1154.34l-5.24,21.61c-.89,3.67,1.14,7.43,4.71,8.69l13.46,4.76c3.63,1.28,7.21-2,6.26-5.73l-6.37-24.88c-.55-2.16-2.14-3.91-4.23-4.68l-4.85-1.78c-1.59-.58-3.34.35-3.74,2Z"/>
                <path class="st77" d="M595.68,1150.39l35.92-12.57c1.97-.69,4.12-.67,6.09.04l5.72,2.09c.82.3.81,1.46-.01,1.75l-35.68,12.48c-2.13.74-4.45.73-6.57-.05l-5.48-2.01c-.82-.3-.81-1.46.01-1.75Z"/>
                <path class="st82" d="M622.47,1189.41s14.99-5.26,24.72-8.68c4.6-1.62,7.21-6.49,5.99-11.21l-6.52-25.45c-.44-1.73-2.28-2.71-3.96-2.12l-34.95,12.23c-1.88.66-2.95,2.65-2.45,4.58l6.37,24.87c1.21,4.72,6.2,7.4,10.8,5.79Z"/>
              </g>
            </g>
          </g>
          <path class="st82" d="M768.36,1232.38c-3.76,1.34-9.87,1.34-13.63,0-3.76-1.34-3.76-3.5,0-4.84,3.76-1.34,9.87-1.34,13.63,0,3.76,1.34,3.76,3.5,0,4.84Z"/>
          <path class="st93" d="M804.39,1244.85c-3.76,1.34-9.87,1.34-13.63,0-3.76-1.34-3.76-3.5,0-4.84,3.76-1.34,9.87-1.34,13.63,0,3.76,1.34,3.76,3.5,0,4.84Z"/>
          <path class="st93" d="M840.41,1257.31c-3.76,1.34-9.87,1.34-13.63,0s-3.76-3.5,0-4.84c3.76-1.34,9.87-1.34,13.63,0s3.76,3.5,0,4.84Z"/>
          <path class="st93" d="M876.43,1269.78c-3.76,1.34-9.87,1.34-13.63,0-3.76-1.34-3.76-3.5,0-4.84,3.76-1.34,9.87-1.34,13.63,0,3.76,1.34,3.76,3.5,0,4.84Z"/>
          <path class="st89" d="M912.46,1282.25c-3.76,1.34-9.87,1.34-13.63,0-3.76-1.34-3.76-3.5,0-4.84,3.76-1.34,9.87-1.34,13.63,0,3.76,1.34,3.76,3.5,0,4.84Z"/>
        </g>
        <g>
          <g>
            <path d="M1506.8,1206.32l-52.89,18.64c-6.15,2.17-16.12,2.17-22.27,0l-52.89-18.64c-6.15-2.17-6.15-5.68,0-7.85l52.89-18.64c6.15-2.17,16.12-2.17,22.27,0l52.89,18.64c6.15,2.17,6.15,5.68,0,7.85Z"/>
            <path d="M1501.91,1204.55l-52.89,18.64c-6.15,2.17-16.12,2.17-22.27,0l-52.89-18.64c-6.15-2.17-6.15-5.68,0-7.85l52.89-18.64c6.15-2.17,16.12-2.17,22.27,0l52.89,18.64c6.15,2.17,6.15,5.68,0,7.85Z"/>
            <path class="st47" d="M1498.34,1188.41l-44.47-9.22c-6.15-2.17-16.12-2.17-22.27,0l-44.47,9.22h-13.02v13.35c0,1.42,1.54,2.84,4.61,3.93l52.89,18.64c6.15,2.17,16.12,2.17,22.27,0l52.89-18.64c3.08-1.08,4.61-2.51,4.61-3.93v-13.35h-13.02Z"/>
            <path class="st68" d="M1506.76,1191.49l-52.89,18.64c-6.15,2.17-16.12,2.17-22.27,0l-52.89-18.64c-6.15-2.17-6.15-5.68,0-7.85l52.89-18.64c6.15-2.17,16.12-2.17,22.27,0l52.89,18.64c6.15,2.17,6.15,5.68,0,7.85Z"/>
            <path class="st92" d="M1510.64,1185.9c.92,1.74-.52,3.6-4.34,4.95l-52.89,18.64c-6.15,2.17-16.12,2.17-22.27,0l-52.89-18.64c-1.86-.65-3.14-1.43-3.88-2.26.56,1.06,2.01,2.08,4.34,2.9l52.89,18.64c6.15,2.17,16.12,2.17,22.27,0l52.89-18.64c4.29-1.51,5.58-3.68,3.88-5.59Z"/>
          </g>
          <g>
            <path d="M1399.4,1244.17l-52.89,18.64c-6.15,2.17-16.12,2.17-22.27,0l-52.89-18.64c-6.15-2.17-6.15-5.68,0-7.85l52.89-18.64c6.15-2.17,16.12-2.17,22.27,0l52.89,18.64c6.15,2.17,6.15,5.68,0,7.85Z"/>
            <path d="M1394.52,1242.4l-52.89,18.64c-6.15,2.17-16.12,2.17-22.27,0l-52.89-18.64c-6.15-2.17-6.15-5.68,0-7.85l52.89-18.64c6.15-2.17,16.12-2.17,22.27,0l52.89,18.64c6.15,2.17,6.15,5.68,0,7.85Z"/>
            <path class="st40" d="M1390.95,1226.26l-44.47-9.22c-6.15-2.17-16.12-2.17-22.27,0l-44.47,9.22h-13.02v13.35c0,1.42,1.54,2.84,4.61,3.93l52.89,18.64c6.15,2.17,16.12,2.17,22.27,0l52.89-18.64c3.08-1.08,4.61-2.51,4.61-3.93v-13.35h-13.02Z"/>
            <path class="st68" d="M1399.36,1229.34l-52.89,18.64c-6.15,2.17-16.12,2.17-22.27,0l-52.89-18.64c-6.15-2.17-6.15-5.68,0-7.85l52.89-18.64c6.15-2.17,16.12-2.17,22.27,0l52.89,18.64c6.15,2.17,6.15,5.68,0,7.85Z"/>
            <path class="st92" d="M1403.25,1223.75c.92,1.74-.52,3.6-4.34,4.95l-52.89,18.64c-6.15,2.17-16.12,2.17-22.27,0l-52.89-18.64c-1.86-.65-3.14-1.43-3.88-2.26.56,1.06,2.01,2.08,4.34,2.9l52.89,18.64c6.15,2.17,16.12,2.17,22.27,0l52.89-18.64c4.29-1.51,5.58-3.68,3.88-5.59Z"/>
          </g>
          <g>
            <path d="M1292.01,1282.02l-52.89,18.64c-6.15,2.17-16.12,2.17-22.27,0l-52.89-18.64c-6.15-2.17-6.15-5.68,0-7.85l52.89-18.64c6.15-2.17,16.12-2.17,22.27,0l52.89,18.64c6.15,2.17,6.15,5.68,0,7.85Z"/>
            <path d="M1287.12,1280.25l-52.89,18.64c-6.15,2.17-16.12,2.17-22.27,0l-52.89-18.64c-6.15-2.17-6.15-5.68,0-7.85l52.89-18.64c6.15-2.17,16.12-2.17,22.27,0l52.89,18.64c6.15,2.17,6.15,5.68,0,7.85Z"/>
            <path class="st39" d="M1283.55,1264.11l-44.47-9.22c-6.15-2.17-16.12-2.17-22.27,0l-44.47,9.22h-13.02v13.35c0,1.42,1.54,2.84,4.61,3.93l52.89,18.64c6.15,2.17,16.12,2.17,22.27,0l52.89-18.64c3.08-1.08,4.61-2.51,4.61-3.93v-13.35h-13.02Z"/>
            <path class="st68" d="M1291.96,1267.19l-52.89,18.64c-6.15,2.17-16.12,2.17-22.27,0l-52.89-18.64c-6.15-2.17-6.15-5.68,0-7.85l52.89-18.64c6.15-2.17,16.12-2.17,22.27,0l52.89,18.64c6.15,2.17,6.15,5.68,0,7.85Z"/>
            <path class="st92" d="M1295.85,1261.6c.92,1.74-.52,3.6-4.34,4.95l-52.89,18.64c-6.15,2.17-16.12,2.17-22.27,0l-52.89-18.64c-1.86-.65-3.14-1.43-3.88-2.26.56,1.06,2.01,2.08,4.34,2.9l52.89,18.64c6.15,2.17,16.12,2.17,22.27,0l52.89-18.64c4.29-1.51,5.58-3.68,3.88-5.59Z"/>
          </g>
          <g>
            <path class="st46" d="M1310.87,1221.33c-.14.08-.25.17-.35.27l-2.11,2.17c-.19.21-.25.41-.14.6.13.17.37.29.73.32l49.01,5.21c.59.06,1.3-.1,1.79-.39.13-.08.25-.17.34-.26l2.1-2.17c.41-.43.16-.85-.61-.93l-49.01-5.21c-.36-.03-.79.03-1.17.13-.22.07-.42.16-.59.26Z"/>
            <path class="st46" d="M1252.24,1266.93c-.2-.21-.46-.33-.75-.33l-38.8-1.05,2.41-12.18c.06-.31-.02-.63-.21-.88s-.49-.39-.81-.4l-2.55-.07h-.03s-.47,0-.47,0h-.04c-.51,0-.94.36-1.04.86l-3.14,15.85c-.06.31.02.63.21.88.2.24.49.39.81.4l42.94,1.16c.06,0,.11,0,.09-.01h.5s.02.01.03.01c.27,0,.53-.1.73-.29.21-.2.33-.46.33-.75l.06-2.44c0-.29-.1-.56-.29-.77Z"/>
            <path class="st46" d="M1420.21,1182.24c.2.21.46.33.75.33l38.8,1.05-2.41,12.18c-.06.31.02.63.21.88s.49.39.81.4l2.55.07h.03s.47,0,.47,0h.04c.51,0,.94-.36,1.04-.86l3.14-15.85c.06-.31-.02-.63-.21-.88-.2-.24-.49-.39-.81-.4l-42.94-1.16c-.06,0-.11,0-.09.01h-.5s-.02-.01-.03-.01c-.27,0-.53.1-.73.29-.21.2-.33.46-.33.75l-.06,2.44c0,.29.1.56.29.77Z"/>
          </g>
        </g>
        <polyline class="st24" points="1420.58 785.61 1420.58 907.21 1122.49 1012.13"/>
      </g>
    </g>
  </g>
</svg>