<?xml version="1.0" encoding="UTF-8"?>
<!--
 - Copyright (c) 2024 OceanBase.
 -
 - Licensed under the Apache License, Version 2.0 (the "License");
 - you may not use this file except in compliance with the License.
 - You may obtain a copy of the License at
 -
 -     http://www.apache.org/licenses/LICENSE-2.0
 -
 - Unless required by applicable law or agreed to in writing, software
 - distributed under the License is distributed on an "AS IS" BASIS,
 - WITHOUT WARRANTIES OR CONDITIONS OF ANY KIND, either express or implied.
 - See the License for the specific language governing permissions and
 - limitations under the License.
 -->

<svg width="18px" height="22px" viewBox="0 0 18 22" version="1.1" xmlns="http://www.w3.org/2000/svg" xmlns:xlink="http://www.w3.org/1999/xlink">
    <g id="OBProxy" stroke="none" stroke-width="1" fill="none" fill-rule="evenodd">
        <g id="4.1.2.1.2-OBProxy-集群总览-集群数据-单个ip" transform="translate(-235.000000, -101.000000)" fill="#36CFC9">
            <g id="Backstage/pageheader/normal" transform="translate(232.000000, 48.000000)">
                <g id="Icon/01-Line/1-example" transform="translate(0.000000, 52.000000)">
                    <path d="M19.5,1.5 L4.5,1.5 C4.08515625,1.5 3.75,1.83515625 3.75,2.25 L3.75,7.5 L20.25,7.5 L20.25,2.25 C20.25,1.83515625 19.9148437,1.5 19.5,1.5 Z M10.6875,5.0625 C10.6875,5.165625 10.603125,5.25 10.5,5.25 L6.1875,5.25 C6.084375,5.25 6,5.165625 6,5.0625 L6,3.9375 C6,3.834375 6.084375,3.75 6.1875,3.75 L10.5,3.75 C10.603125,3.75 10.6875,3.834375 10.6875,3.9375 L10.6875,5.0625 Z M3.75,21.75 C3.75,22.1648438 4.08515625,22.5 4.5,22.5 L19.5,22.5 C19.9148437,22.5 20.25,22.1648438 20.25,21.75 L20.25,16.5 L3.75,16.5 L3.75,21.75 Z M17.25,18.5625 C17.7679688,18.5625 18.1875,18.9820312 18.1875,19.5 C18.1875,20.0179688 17.7679688,20.4375 17.25,20.4375 C16.7320312,20.4375 16.3125,20.0179688 16.3125,19.5 C16.3125,18.9820312 16.7320312,18.5625 17.25,18.5625 Z M3.75,15 L20.25,15 L20.25,9 L3.75,9 L3.75,15 Z M6,11.4375 C6,11.334375 6.084375,11.25 6.1875,11.25 L10.5,11.25 C10.603125,11.25 10.6875,11.334375 10.6875,11.4375 L10.6875,12.5625 C10.6875,12.665625 10.603125,12.75 10.5,12.75 L6.1875,12.75 C6.084375,12.75 6,12.665625 6,12.5625 L6,11.4375 Z" id="Shape"></path>
                </g>
            </g>
        </g>
    </g>
</svg>