<?xml version="1.0" encoding="UTF-8"?>
<svg width="129px" height="20px" viewBox="0 0 154 16" version="1.1" xmlns="http://www.w3.org/2000/svg" xmlns:xlink="http://www.w3.org/1999/xlink">
    <title>obshell Dashboard全称</title>
    <g id="页面-1" stroke="none" stroke-width="1" fill="none" fill-rule="evenodd">
        <g id="obshell Dashboard全称" transform="translate(-0, 0)" fill-rule="nonzero">
            <g id="编组">
                <g transform="translate(80.57, 2.7219)" fill="#040D2B">
                    <path d="M21.9089974,10.6439394 C20.9951288,10.6439394 20.239534,10.4415584 19.6563058,10.0422078 C19.078498,9.64285714 18.6828135,9.14935065 18.4855133,8.57792208 L20.0173002,7.84848485 C20.3089142,8.42532468 20.9951288,9.09090909 21.9881343,9.09090909 C22.8477995,9.09090909 23.4256073,8.78030303 23.4256073,8.32142857 C23.4256073,7.96103896 23.1047235,7.67532468 22.5908756,7.57142857 L21.0449959,7.29004329 C19.578253,7.00865801 18.8616846,6.29329004 18.8616846,5.10064935 C18.8616846,4.4004329 19.1576349,3.82359307 19.7408631,3.38961039 C20.3186709,2.96103896 21.0991992,2.73376623 21.998975,2.73376623 C22.8987507,2.73376623 23.5947218,2.92099567 24.1183263,3.29112554 C24.6365104,3.66125541 24.9931685,4.12012987 25.1709555,4.6525974 L23.6695225,5.36796537 C23.5708723,4.9047619 22.9280205,4.26298701 21.9697051,4.26298701 C21.0113898,4.26298701 20.6905059,4.71212121 20.6905059,5.01731602 C20.6905059,5.37770563 21.0211464,5.67316017 21.5349942,5.76731602 L23.1253207,6.06277056 C23.8906722,6.2012987 24.4543871,6.45779221 24.7947842,6.81709957 C25.1601148,7.20670996 25.3335656,7.6504329 25.3335656,8.20779221 C25.3335656,8.91774892 25.0267745,9.50974026 24.4294535,9.96320346 C23.8364688,10.4123377 22.9670469,10.6482684 21.9144177,10.6482684 L21.9144177,10.6482684 L21.9089974,10.6428571 L21.9089974,10.6439394 Z" id="路径"></path>
                    <path d="M13.5876978,10.6341991 C12.0418181,10.6341991 10.7376853,9.53896104 10.7376853,8.24242424 C10.7376853,6.94588745 11.8835443,5.92965368 13.4099108,5.85497835 L15.7916064,5.73701299 L15.7818498,5.66774892 C15.6831997,4.72619048 14.8278707,4.39502165 14.1264792,4.39502165 C13.4250878,4.39502165 12.7486298,4.78463203 12.3822151,5.37121212 L10.8753618,4.46861472 C11.5377268,3.3982684 12.7822359,2.73268398 14.1210589,2.73268398 C16.1070699,2.73268398 17.544543,4.04437229 17.544543,5.85497835 L17.544543,10.5010823 L15.786186,10.5010823 L15.786186,9.76623377 L15.672359,9.87012987 C15.1194847,10.3733766 14.397496,10.6341991 13.5822775,10.6341991 L13.5876978,10.6341991 L13.5876978,10.6341991 Z M13.4988043,7.36471861 C12.8765498,7.40367965 12.461352,7.74891775 12.461352,8.22835498 C12.461352,8.65692641 12.8570366,9.11147186 13.5876978,9.11147186 C14.8029371,9.11147186 15.7916064,8.29761905 15.7916064,7.30194805 L15.7916064,7.22835498 L13.4988043,7.36688312 L13.4988043,7.36688312 L13.4988043,7.36471861 Z" id="形状"></path>
                    <path d="M31.6124826,10.495671 L31.6124826,5.81493506 C31.6124826,4.9469697 30.8417108,4.24134199 29.8985724,4.24134199 C28.9554339,4.24134199 28.1846622,4.9469697 28.1846622,5.81493506 L28.1846622,10.495671 L26.4165487,10.495671 L26.4165487,0 L28.1846622,0 L28.1846622,3.54112554 L28.2984892,3.4469697 C28.8470272,2.97835498 29.5332417,2.73160173 30.27908,2.73160173 C32.0471935,2.73160173 33.3816802,4.05844156 33.3816802,5.81385281 L33.3816802,10.4945887 L31.6135666,10.4945887 L31.6124826,10.495671 Z" id="路径"></path>
                    <path d="M47.631743,10.6396104 C45.4484318,10.6396104 43.6748979,8.86904762 43.6748979,6.68939394 C43.6748979,4.50974026 45.4484318,2.73917749 47.631743,2.73917749 C49.8150543,2.73917749 51.5885882,4.50974026 51.5885882,6.68939394 C51.5885882,8.86904762 49.8150543,10.6396104 47.631743,10.6396104 Z M47.631743,4.504329 C46.4262604,4.504329 45.4430114,5.48593074 45.4430114,6.68939394 C45.4430114,7.89285714 46.4262604,8.87445887 47.631743,8.87445887 C48.8372257,8.87445887 49.8204747,7.89285714 49.8204747,6.68939394 C49.8204747,5.48593074 48.8372257,4.504329 47.631743,4.504329 Z" id="形状"></path>
                    <path d="M68.5737525,10.6439394 C66.5086046,10.6439394 64.8293845,8.86796537 64.8293845,6.68831169 C64.8293845,4.50865801 66.5086046,2.73268398 68.5737525,2.73268398 C69.4431744,2.73268398 70.293083,3.0530303 70.9597844,3.64069264 L71.0736114,3.73917749 L71.0736114,0.00108225108 L72.8417249,0.00108225108 L72.8417249,10.4967532 L71.0736114,10.4967532 L71.0736114,9.63311688 L70.9597844,9.73160173 C70.2876627,10.3181818 69.4431744,10.6396104 68.5737525,10.6396104 L68.5737525,10.6396104 L68.5737525,10.6450216 L68.5737525,10.6439394 Z M68.7862297,4.41017316 C67.5265436,4.41017316 66.5042683,5.43073593 66.5042683,6.68831169 C66.5042683,7.94588745 67.5265436,8.96645022 68.7862297,8.96645022 C70.0459157,8.96645022 71.0681911,7.94588745 71.0681911,6.68831169 C71.0681911,5.43073593 70.0459157,4.41017316 68.7862297,4.41017316 Z" id="形状"></path>
                    <path d="M39.0069047,10.6439394 C41.0720526,10.6439394 42.7512727,8.86796537 42.7512727,6.68831169 C42.7512727,4.50865801 41.0720526,2.73268398 39.0069047,2.73268398 C38.1374828,2.73268398 37.2875742,3.0530303 36.6208729,3.64069264 L36.5070458,3.73917749 L36.5070458,0.00108225108 L34.7389323,0.00108225108 L34.7389323,10.4967532 L36.5070458,10.4967532 L36.5070458,9.63311688 L36.6208729,9.73160173 C37.2929945,10.3181818 38.1374828,10.6396104 39.0069047,10.6396104 L39.0069047,10.6396104 L39.0069047,10.6450216 L39.0069047,10.6439394 Z M38.7944275,4.41017316 C40.0541136,4.41017316 41.0763889,5.43073593 41.0763889,6.68831169 C41.0763889,7.94588745 40.0541136,8.96645022 38.7944275,8.96645022 C37.5347415,8.96645022 36.5124661,7.94588745 36.5124661,6.68831169 C36.5124661,5.43073593 37.5347415,4.41017316 38.7944275,4.41017316 Z" id="形状"></path>
                    <path d="M55.2104566,10.6341991 C53.6645768,10.6341991 52.360444,9.53896104 52.360444,8.24242424 C52.360444,6.94588745 53.506303,5.92965368 55.0326696,5.85497835 L57.4143651,5.73701299 L57.4046085,5.66774892 C57.3059584,4.72619048 56.4506294,4.39502165 55.749238,4.39502165 C55.0478465,4.39502165 54.3713886,4.78463203 54.0049739,5.37121212 L52.4981205,4.46861472 C53.1604856,3.3982684 54.4049947,2.73268398 55.7438176,2.73268398 C57.7298287,2.73268398 59.1673017,4.04437229 59.1673017,5.85497835 L59.1673017,10.5010823 L57.4089448,10.5010823 L57.4089448,9.76623377 L57.2951177,9.87012987 C56.7422435,10.3733766 56.0202548,10.6341991 55.2050363,10.6341991 L55.2104566,10.6341991 L55.2104566,10.6341991 Z M55.1215631,7.36471861 C54.4993085,7.40367965 54.0841108,7.74891775 54.0841108,8.22835498 C54.0841108,8.65692641 54.4797953,9.11147186 55.2104566,9.11147186 C56.4256959,9.11147186 57.4143651,8.29761905 57.4143651,7.30194805 L57.4143651,7.22835498 L55.1215631,7.36688312 L55.1215631,7.36688312 L55.1215631,7.36471861 Z" id="形状"></path>
                    <path d="M60.269798,10.495671 L60.269798,2.87121212 L62.0238187,2.87121212 L62.0238187,3.47835498 L62.1322254,3.39935065 C62.4726225,3.1482684 62.8433735,2.97077922 63.2336377,2.88203463 C63.6184815,2.79329004 64.1529266,2.74350649 64.8293845,2.74350649 L64.8293845,4.41558442 C64.3794967,4.41558442 63.9892325,4.44480519 63.6683486,4.49891775 C63.3279515,4.5530303 63.0460941,4.63203463 62.8379532,4.73051948 C62.6200557,4.83441558 62.4531093,4.97727273 62.3295257,5.1547619 C62.2113623,5.33225108 62.1268051,5.51948052 62.0877787,5.71212121 C62.0487523,5.9047619 62.028155,6.13636364 62.028155,6.41233766 L62.028155,10.5010823 L60.269798,10.5010823 L60.269798,10.495671 Z" id="路径"></path>
                    <path d="M0,10.495671 L0,0.424242424 L4.85662089,0.424242424 C7.63833724,0.424242424 9.90078541,2.68290043 9.90078541,5.45995671 C9.90078541,8.23701299 7.63833724,10.495671 4.85662089,10.495671 L0,10.495671 L0,10.495671 Z M1.88627687,8.78463203 L4.71677623,8.78463203 C6.50548705,8.78463203 7.95705298,7.29545455 7.95705298,5.45995671 C7.95705298,3.62445887 6.50440298,2.13528139 4.71677623,2.13528139 L1.88627687,2.13528139 L1.88627687,8.77813853 L1.88627687,8.77813853 L1.88627687,8.78354978 L1.88627687,8.78463203 Z" id="形状"></path>
                </g>
                <g>
                    <g fill="#0181FD">
                        <path d="M18.8573483,10.6883117 L16.4366263,10.6883117 C16.0712957,10.6883117 15.7742613,10.3928571 15.7742613,10.0270563 L15.7742613,4.02922078 C15.7742613,3.87121212 15.6463414,3.74350649 15.4880676,3.74350649 L5.55801235,3.74350649 C5.39973854,3.74350649 5.27181862,3.87121212 5.27181862,4.02922078 L5.27181862,10.0270563 C5.27181862,10.3917749 4.97586828,10.6883117 4.60945358,10.6883117 L2.1887316,10.6883117 C1.82340097,10.6883117 1.52636657,10.3928571 1.52636657,10.0270563 L1.52636657,0.661255411 C1.52636657,0.296536797 1.8223169,0 2.1887316,0 L18.8671049,0 C19.2324356,0 19.52947,0.295454545 19.52947,0.661255411 L19.52947,10.0270563 C19.52947,10.3917749 19.2335196,10.6883117 18.8671049,10.6883117 L18.8573483,10.6883117 L18.8573483,10.6883117 Z" id="路径"></path>
                        <rect id="矩形" x="0" y="12.7056277" width="21.0352392" height="3.29437229" rx="1.34000003"></rect>
                    </g>
                    <rect id="矩形" fill="#181818" x="8.68012578" y="6.11147186" width="3.74978832" height="3.74350649" rx="1.34000003"></rect>
                </g>
                <g transform="translate(27.854, 2.7219)" fill="#040D2B">
                    <path d="M3.95684515,10.6396104 C1.77353388,10.6396104 0,8.86904762 0,6.68939394 C0,4.50974026 1.77353388,2.73917749 3.95684515,2.73917749 C6.14015642,2.73917749 7.9136903,4.50974026 7.9136903,6.68939394 C7.9136903,8.86904762 6.14015642,10.6396104 3.95684515,10.6396104 Z M3.95684515,4.504329 C2.75136246,4.504329 1.76811354,5.48593074 1.76811354,6.68939394 C1.76811354,7.89285714 2.75136246,8.87445887 3.95684515,8.87445887 C5.16232783,8.87445887 6.14557675,7.89285714 6.14557675,6.68939394 C6.14557675,5.48593074 5.16232783,4.504329 3.95684515,4.504329 Z" id="形状"></path>
                    <path d="M37.4122419,10.6396104 C35.2289306,10.6396104 33.4499764,8.86363636 33.4499764,6.68398268 C33.4499764,4.504329 35.2289306,2.72835498 37.4122419,2.72835498 C39.5955532,2.72835498 41.3745074,4.504329 41.3745074,6.68398268 C41.3745074,6.91558442 41.3549942,7.1525974 41.3105474,7.38961039 L35.234351,7.38961039 L35.2636208,7.47835498 C35.5845047,8.43506494 36.4495903,9.07683983 37.4122419,9.07683983 C38.237217,9.07683983 38.9928118,8.61363636 39.3982529,7.86363636 L40.9051063,8.5487013 C40.2134714,9.84090909 38.8800688,10.6396104 37.4122419,10.6396104 L37.4122419,10.6396104 L37.4122419,10.6396104 Z M37.4122419,4.29220779 C36.4485062,4.29220779 35.5845047,4.93290043 35.2636208,5.89069264 L35.234351,5.97943723 L39.5966372,5.97943723 L39.5673674,5.89069264 C39.2464835,4.93398268 38.3813979,4.29220779 37.4187463,4.29220779 L37.413326,4.29220779 L37.4122419,4.29220779 Z" id="形状"></path>
                    <path d="M21.047164,10.6439394 C20.1332954,10.6439394 19.3777006,10.4415584 18.7944724,10.0422078 C18.2166646,9.64285714 17.8209801,9.14935065 17.6236799,8.57792208 L19.1554668,7.84848485 C19.4470809,8.42532468 20.1332954,9.09090909 21.1263009,9.09090909 C21.9859662,9.09090909 22.563774,8.78030303 22.563774,8.32142857 C22.563774,7.96103896 22.2428901,7.67532468 21.7290422,7.57142857 L20.1831625,7.29004329 C18.7164196,7.00865801 17.9998512,6.29329004 17.9998512,5.10064935 C17.9998512,4.4004329 18.2958015,3.82359307 18.8790297,3.38961039 C19.4568375,2.96103896 20.2373658,2.73376623 21.1371416,2.73376623 C22.0369173,2.73376623 22.7328884,2.92099567 23.2564929,3.29112554 C23.774677,3.66125541 24.1313351,4.12012987 24.3091221,4.6525974 L22.8076891,5.36796537 C22.709039,4.9047619 22.0661871,4.26298701 21.1078717,4.26298701 C20.1495564,4.26298701 19.8286725,4.71212121 19.8286725,5.01731602 C19.8286725,5.37770563 20.159313,5.67316017 20.6731608,5.76731602 L22.2634873,6.06277056 C23.0288388,6.2012987 23.5925537,6.45779221 23.9329508,6.81709957 C24.2982814,7.20670996 24.4717322,7.6504329 24.4717322,8.20779221 C24.4717322,8.91774892 24.1649412,9.50974026 23.5676201,9.96320346 C22.9746354,10.4123377 22.1052135,10.6482684 21.0525843,10.6482684 L21.0525843,10.6482684 L21.047164,10.6428571 L21.047164,10.6439394 Z" id="路径"></path>
                    <path d="M30.6227292,10.495671 L30.6227292,5.81493506 C30.6227292,4.9469697 29.8519575,4.24134199 28.9088191,4.24134199 C27.9656806,4.24134199 27.1949089,4.9469697 27.1949089,5.81493506 L27.1949089,10.495671 L25.4267953,10.495671 L25.4267953,0 L27.1949089,0 L27.1949089,3.54112554 L27.3087359,3.4469697 C27.8572739,2.97835498 28.5434884,2.73160173 29.2893266,2.73160173 C31.0574402,2.73160173 32.3919269,4.05844156 32.3919269,5.81385281 L32.3919269,10.4945887 L30.6238133,10.4945887 L30.6227292,10.495671 Z" id="路径"></path>
                    <path d="M13.2418804,10.6439394 C15.3070284,10.6439394 16.9862484,8.86796537 16.9862484,6.68831169 C16.9862484,4.50865801 15.3070284,2.73268398 13.2418804,2.73268398 C12.3724585,2.73268398 11.5225499,3.0530303 10.8558486,3.64069264 L10.7420215,3.73917749 L10.7420215,0.00108225108 L8.97390798,0.00108225108 L8.97390798,10.4967532 L10.7420215,10.4967532 L10.7420215,9.63311688 L10.8558486,9.73160173 C11.5279702,10.3181818 12.3724585,10.6396104 13.2418804,10.6396104 L13.2418804,10.6396104 L13.2418804,10.6450216 L13.2418804,10.6439394 Z M13.0294032,4.41017316 C14.2890893,4.41017316 15.3113646,5.43073593 15.3113646,6.68831169 C15.3113646,7.94588745 14.2890893,8.96645022 13.0294032,8.96645022 C11.7697172,8.96645022 10.7474419,7.94588745 10.7474419,6.68831169 C10.7474419,5.43073593 11.7697172,4.41017316 13.0294032,4.41017316 Z" id="形状"></path>
                    <rect id="矩形" x="42.4997691" y="0.038961039" width="1.84291418" height="10.495671"></rect>
                    <rect id="矩形" x="45.5861083" y="0" width="1.84291418" height="10.495671"></rect>
                </g>
            </g>
        </g>
    </g>
</svg>
