<?xml version="1.0" encoding="UTF-8"?>
<svg width="76px" height="16px" viewBox="0 0 76 16" version="1.1" xmlns="http://www.w3.org/2000/svg" xmlns:xlink="http://www.w3.org/1999/xlink">
    <title>obshell Dashboard简称</title>
    <g id="页面-1" stroke="none" stroke-width="1" fill="none" fill-rule="evenodd">
        <g id="obshell-Dashboard简称" fill-rule="nonzero">
            <g transform="translate(0.0269, 0.0603)" id="编组">
                <g>
                    <g fill="#0181FD">
                        <path d="M18.6904478,10.6110448 L16.2913433,10.6110448 C15.9286567,10.6110448 15.6349254,10.3173134 15.6349254,9.95462687 L15.6349254,4.00029851 C15.6349254,3.84358209 15.5077612,3.71641791 15.3510448,3.71641791 L5.50925373,3.71641791 C5.35253731,3.71641791 5.22537313,3.84358209 5.22537313,4.00029851 L5.22537313,9.95462687 C5.22537313,10.3173134 4.93164179,10.6110448 4.56895522,10.6110448 L2.16985075,10.6110448 C1.80716418,10.6110448 1.51343284,10.3173134 1.51343284,9.95462687 L1.51343284,0.65641791 C1.51343284,0.293731343 1.80716418,0 2.16985075,0 L18.7002985,0 C19.0629851,0 19.3567164,0.293731343 19.3567164,0.65641791 L19.3567164,9.95462687 C19.3567164,10.3173134 19.0629851,10.6110448 18.7002985,10.6110448 L18.6904478,10.6110448 L18.6904478,10.6110448 Z" id="路径"></path>
                        <rect id="矩形" x="0" y="12.6080597" width="20.8495522" height="3.27044776" rx="1.34000003"></rect>
                    </g>
                    <rect id="矩形" fill="#181818" x="8.60328358" y="6.06716418" width="3.71641791" height="3.71641791" rx="1.34000003"></rect>
                </g>
                <g transform="translate(27.8857, 7.9281)" fill="#040D2B">
                    <path d="M14.221791,6.91970149 C13.6289552,6.91970149 13.138209,6.7880597 12.759403,6.52835821 C12.3841791,6.26865672 12.1280597,5.9480597 11.9991045,5.57552239 L12.9931343,5.10089552 C13.1820896,5.4761194 13.6280597,5.90865672 14.2728358,5.90865672 C14.8307463,5.90865672 15.2059701,5.70626866 15.2059701,5.4080597 C15.2059701,5.17432836 14.9973134,4.9880597 14.6641791,4.92089552 L13.6602985,4.73820896 C12.7074627,4.55552239 12.2426866,4.09074627 12.2426866,3.31432836 C12.2426866,2.85850746 12.4352239,2.4841791 12.8131343,2.20119403 C13.1883582,1.92179104 13.6952239,1.77492537 14.2791045,1.77492537 C14.8629851,1.77492537 15.3152239,1.89671642 15.6546269,2.13761194 C15.9913433,2.37850746 16.2223881,2.67671642 16.3379104,3.02238806 L15.3626866,3.48716418 C15.298209,3.18537313 14.881791,2.76895522 14.259403,2.76895522 C13.6370149,2.76895522 13.4292537,3.06089552 13.4292537,3.25970149 C13.4292537,3.49343284 13.6441791,3.68597015 13.9773134,3.74686567 L15.0098507,3.93940299 C15.5068657,4.02895522 15.8722388,4.19552239 16.0934328,4.43014925 C16.3307463,4.68358209 16.4426866,4.9719403 16.4426866,5.33462687 C16.4426866,5.79671642 16.2438806,6.18089552 15.8561194,6.47641791 C15.4710448,6.76835821 14.9068657,6.92238806 14.2235821,6.92238806 L14.2235821,6.92238806 L14.22,6.91880597 L14.221791,6.91970149 Z" id="路径"></path>
                    <path d="M8.82,6.91343284 C7.8161194,6.91343284 6.96985075,6.20149254 6.96985075,5.35791045 C6.96985075,4.51432836 7.71402985,3.85432836 8.70447761,3.80597015 L10.2501493,3.72895522 L10.2438806,3.6841791 C10.179403,3.07164179 9.62507463,2.85671642 9.16925373,2.85671642 C8.71343284,2.85671642 8.27462687,3.11014925 8.03731343,3.49164179 L7.05940299,2.90507463 C7.48925373,2.20925373 8.29701493,1.7758209 9.16656716,1.7758209 C10.4561194,1.7758209 11.3892537,2.62925373 11.3892537,3.80597015 L11.3892537,6.82656716 L10.2474627,6.82656716 L10.2474627,6.34835821 L10.1740299,6.41552239 C9.81492537,6.74238806 9.34656716,6.91253731 8.81731343,6.91253731 L8.82089552,6.91253731 L8.82,6.91343284 Z M8.76268657,4.78746269 C8.35880597,4.81343284 8.08925373,5.03731343 8.08925373,5.34895522 C8.08925373,5.62835821 8.34537313,5.92298507 8.82,5.92298507 C9.60895522,5.92298507 10.2501493,5.39373134 10.2501493,4.74626866 L10.2501493,4.69791045 L8.76179104,4.78746269 L8.76179104,4.78746269 L8.76268657,4.78746269 Z" id="形状"></path>
                    <path d="M20.5208955,6.8238806 L20.5208955,3.78089552 C20.5208955,3.21671642 20.0202985,2.75820896 19.4077612,2.75820896 C18.7952239,2.75820896 18.2946269,3.21671642 18.2946269,3.78089552 L18.2946269,6.8238806 L17.1465672,6.8238806 L17.1465672,0 L18.2946269,0 L18.2946269,2.30238806 L18.3680597,2.24149254 C18.7235821,1.93701493 19.1695522,1.77671642 19.6540299,1.77671642 C20.8020896,1.77671642 21.6680597,2.63910448 21.6680597,3.78089552 L21.6680597,6.8238806 L20.52,6.8238806 L20.5208955,6.8238806 Z" id="路径"></path>
                    <g transform="translate(22.5501, 0)">
                        <path d="M8.36955224,6.91701493 C6.9519403,6.91701493 5.80119403,5.76537313 5.80119403,4.34865672 C5.80119403,2.9319403 6.95283582,1.78029851 8.36955224,1.78029851 C9.78626866,1.78029851 10.9379104,2.9319403 10.9379104,4.34865672 C10.9379104,5.76537313 9.78626866,6.91701493 8.36955224,6.91701493 Z M8.36955224,2.92746269 C7.58686567,2.92746269 6.94925373,3.56597015 6.94925373,4.34776119 C6.94925373,5.12955224 7.58776119,5.7680597 8.36955224,5.7680597 C9.15134328,5.7680597 9.78985075,5.12955224 9.78985075,4.34776119 C9.78985075,3.56597015 9.15134328,2.92746269 8.36955224,2.92746269 Z" id="形状"></path>
                        <path d="M21.9635821,6.91970149 C20.6229851,6.91970149 19.5331343,5.76537313 19.5331343,4.34776119 C19.5331343,2.93014925 20.6238806,1.7758209 21.9635821,1.7758209 C22.5277612,1.7758209 23.079403,1.98447761 23.5128358,2.36597015 L23.5862687,2.43044776 L23.5862687,0 L24.7343284,0 L24.7343284,6.8238806 L23.5862687,6.8238806 L23.5862687,6.26238806 L23.5128358,6.32686567 C23.0767164,6.70835821 22.5286567,6.91701493 21.9635821,6.91701493 L21.9635821,6.91701493 L21.9635821,6.92059701 L21.9635821,6.91970149 Z M22.1014925,2.86656716 C21.2838806,2.86656716 20.6202985,3.53014925 20.6202985,4.34776119 C20.6202985,5.16537313 21.2838806,5.82895522 22.1014925,5.82895522 C22.9191045,5.82895522 23.5826866,5.16537313 23.5826866,4.34776119 C23.5826866,3.53014925 22.9191045,2.86656716 22.1014925,2.86656716 Z" id="形状"></path>
                        <path d="M2.77074627,6.91970149 C4.11134328,6.91970149 5.20119403,5.76537313 5.20119403,4.34776119 C5.20119403,2.93014925 4.11044776,1.7758209 2.77074627,1.7758209 C2.20656716,1.7758209 1.65492537,1.98447761 1.22149254,2.36597015 L1.1480597,2.43044776 L1.1480597,0 L0,0 L0,6.8238806 L1.1480597,6.8238806 L1.1480597,6.26238806 L1.22149254,6.32686567 C1.65761194,6.70835821 2.20567164,6.91701493 2.77074627,6.91701493 L2.77074627,6.91701493 L2.77074627,6.92059701 L2.77074627,6.91970149 Z M2.63283582,2.86656716 C3.45044776,2.86656716 4.11402985,3.53014925 4.11402985,4.34776119 C4.11402985,5.16537313 3.45044776,5.82895522 2.63283582,5.82895522 C1.81522388,5.82895522 1.15164179,5.16537313 1.15164179,4.34776119 C1.15164179,3.53014925 1.81522388,2.86656716 2.63283582,2.86656716 Z" id="形状"></path>
                        <path d="M13.2886567,6.91343284 C12.2847761,6.91343284 11.4385075,6.20149254 11.4385075,5.35791045 C11.4385075,4.51432836 12.1826866,3.85432836 13.1731343,3.80597015 L14.718806,3.72895522 L14.7125373,3.6841791 C14.6480597,3.07164179 14.0937313,2.85671642 13.6379104,2.85671642 C13.1820896,2.85671642 12.7432836,3.11014925 12.5059701,3.49164179 L11.5280597,2.90507463 C11.9579104,2.20925373 12.7656716,1.7758209 13.6352239,1.7758209 C14.9247761,1.7758209 15.8579104,2.62925373 15.8579104,3.80597015 L15.8579104,6.82656716 L14.7161194,6.82656716 L14.7161194,6.34835821 L14.6426866,6.41552239 C14.2835821,6.74238806 13.8152239,6.91253731 13.2859701,6.91253731 L13.2895522,6.91253731 L13.2886567,6.91343284 Z M13.2313433,4.78746269 C12.8274627,4.81343284 12.5579104,5.03731343 12.5579104,5.34895522 C12.5579104,5.62835821 12.8140299,5.92298507 13.2886567,5.92298507 C14.0776119,5.92298507 14.718806,5.39373134 14.718806,4.74626866 L14.718806,4.69791045 L13.2304478,4.78746269 L13.2304478,4.78746269 L13.2313433,4.78746269 Z" id="形状"></path>
                        <path d="M16.5725373,6.8238806 L16.5725373,1.86626866 L17.7107463,1.86626866 L17.7107463,2.26029851 L17.7814925,2.20925373 C18.0026866,2.04537313 18.2435821,1.92985075 18.4970149,1.87253731 C18.7468657,1.81522388 19.0934328,1.78298507 19.5331343,1.78298507 L19.5331343,2.87014925 C19.241194,2.87014925 18.9877612,2.88895522 18.7791045,2.92477612 C18.5579104,2.95970149 18.3752239,3.01164179 18.24,3.07522388 C18.0985075,3.14238806 17.9901493,3.23552239 17.9095522,3.35104478 C17.8325373,3.46656716 17.7779104,3.58835821 17.7528358,3.71373134 C17.7277612,3.83910448 17.7143284,3.98955224 17.7143284,4.16955224 L17.7143284,6.82835821 L16.5725373,6.82835821 L16.5725373,6.82477612 L16.5725373,6.8238806 Z" id="路径"></path>
                    </g>
                    <path d="M6.78727389e-15,6.8238806 L6.78727389e-15,0.275820896 L3.15223881,0.275820896 C4.95761194,0.275820896 6.42626866,1.74447761 6.42626866,3.54985075 C6.42626866,5.35522388 4.95761194,6.8238806 3.15223881,6.8238806 L6.78727389e-15,6.8238806 L6.78727389e-15,6.8238806 Z M1.22507463,5.71074627 L3.06268657,5.71074627 C4.22328358,5.71074627 5.16626866,4.74268657 5.16626866,3.54895522 C5.16626866,2.35522388 4.22328358,1.38716418 3.06268657,1.38716418 L1.22507463,1.38716418 L1.22507463,5.70716418 L1.22507463,5.70716418 L1.22507463,5.71074627 Z" id="形状"></path>
                </g>
                <g transform="translate(27.8857, 0.9439)" fill="#040D2B">
                    <path d="M16.3728358,4.65671642 C15.4191045,4.65671642 14.641791,3.88029851 14.641791,2.92567164 C14.641791,1.97104478 15.418209,1.19462687 16.3728358,1.19462687 C17.3274627,1.19462687 18.1038806,1.97104478 18.1038806,2.92567164 C18.1038806,3.02686567 18.0949254,3.13074627 18.0761194,3.23462687 L15.421791,3.23462687 L15.4343284,3.27313433 C15.5749254,3.69134328 15.9519403,3.97253731 16.3728358,3.97253731 C16.7328358,3.97253731 17.0632836,3.76925373 17.240597,3.44149254 L17.898806,3.74149254 C17.5970149,4.30656716 17.0140299,4.65671642 16.3728358,4.65671642 L16.3728358,4.65671642 Z M16.3728358,1.87880597 C15.9519403,1.87880597 15.5740299,2.15910448 15.4343284,2.57820896 L15.421791,2.61671642 L17.3274627,2.61671642 L17.3149254,2.57820896 C17.1743284,2.16 16.7973134,1.87880597 16.3764179,1.87880597 L16.3746269,1.87880597 L16.3728358,1.87880597 Z" id="形状"></path>
                    <path d="M9.22477612,4.65850746 C8.82537313,4.65850746 8.4958209,4.56985075 8.24059701,4.39522388 C7.9880597,4.22059701 7.81522388,4.00477612 7.72925373,3.75402985 L8.39820896,3.43432836 C8.52537313,3.68686567 8.82537313,3.97791045 9.25880597,3.97791045 C9.63402985,3.97791045 9.88656716,3.84179104 9.88656716,3.64119403 C9.88656716,3.48358209 9.74597015,3.35820896 9.52208955,3.31343284 L8.84686567,3.19074627 C8.20567164,3.0680597 7.89313433,2.75462687 7.89313433,2.23253731 C7.89313433,1.92626866 8.02298507,1.67373134 8.27731343,1.4838806 C8.52985075,1.2958209 8.87104478,1.19731343 9.26328358,1.19731343 C9.65552239,1.19731343 9.96,1.27970149 10.1892537,1.44089552 C10.4158209,1.60298507 10.5716418,1.80358209 10.6486567,2.03641791 L9.99223881,2.34895522 C9.94925373,2.14567164 9.66895522,1.86537313 9.24985075,1.86537313 C8.83074627,1.86537313 8.69104478,2.06149254 8.69104478,2.1958209 C8.69104478,2.35343284 8.83522388,2.48238806 9.06,2.52358209 L9.75492537,2.65343284 C10.0898507,2.71343284 10.3352239,2.82626866 10.4838806,2.9838806 C10.6432836,3.15402985 10.719403,3.34835821 10.719403,3.59283582 C10.719403,3.90358209 10.5859701,4.16238806 10.3244776,4.36119403 C10.0656716,4.55731343 9.68597015,4.66119403 9.22567164,4.66119403 L9.22567164,4.66119403 L9.2238806,4.65940299 L9.22477612,4.65850746 Z" id="路径"></path>
                    <path d="M13.4068657,4.59402985 L13.4068657,2.54597015 C13.4068657,2.16626866 13.0701493,1.85731343 12.658209,1.85731343 C12.2462687,1.85731343 11.9095522,2.16626866 11.9095522,2.54597015 L11.9095522,4.59402985 L11.1367164,4.59402985 L11.1367164,0.00179104478 L11.9095522,0.00179104478 L11.9095522,1.55104478 L11.958806,1.50985075 C12.1979104,1.30477612 12.4979104,1.19731343 12.8238806,1.19731343 C13.5967164,1.19731343 14.178806,1.77761194 14.178806,2.54597015 L14.178806,4.59402985 L13.4059701,4.59402985 L13.4068657,4.59402985 Z" id="路径"></path>
                    <path d="M5.81552239,4.65850746 C6.71731343,4.65850746 7.45164179,3.88208955 7.45164179,2.92746269 C7.45164179,1.97283582 6.71820896,1.19641791 5.81552239,1.19641791 C5.4358209,1.19641791 5.0641791,1.33701493 4.77313433,1.59313433 L4.7238806,1.6361194 L4.7238806,0 L3.95104478,0 L3.95104478,4.59223881 L4.7238806,4.59223881 L4.7238806,4.21432836 L4.77313433,4.25731343 C5.06686567,4.51432836 5.4358209,4.65402985 5.81552239,4.65402985 L5.81552239,4.65402985 L5.81552239,4.6558209 L5.81552239,4.65850746 Z M5.72238806,1.93074627 C6.27223881,1.93074627 6.71910448,2.37761194 6.71910448,2.92746269 C6.71910448,3.47731343 6.27223881,3.9241791 5.72238806,3.9241791 C5.17253731,3.9241791 4.72567164,3.47731343 4.72567164,2.92746269 C4.72567164,2.37761194 5.17253731,1.93074627 5.72238806,1.93074627 Z" id="形状"></path>
                    <rect id="矩形" x="18.5955224" y="0.0179104478" width="1" height="4.59223881"></rect>
                    <rect id="矩形" x="19.9432836" y="0.000895522388" width="1" height="4.59223881"></rect>
                    <path d="M1.74358209,4.69701493 C0.780895522,4.69701493 0,3.91522388 0,2.95343284 C0,1.99164179 0.781791045,1.20985075 1.74358209,1.20985075 C2.70537313,1.20985075 3.48716418,1.99164179 3.48716418,2.95343284 C3.48716418,3.91522388 2.70537313,4.69701493 1.74358209,4.69701493 Z M1.74358209,1.98895522 C1.21253731,1.98895522 0.779104478,2.42238806 0.779104478,2.95343284 C0.779104478,3.48447761 1.21253731,3.91791045 1.74358209,3.91791045 C2.27462687,3.91791045 2.7080597,3.48447761 2.7080597,2.95343284 C2.7080597,2.42238806 2.27462687,1.98895522 1.74358209,1.98895522 Z" id="形状"></path>
                </g>
            </g>
        </g>
    </g>
</svg>